<svg width="128" height="128" viewBox="0 0 128 128" fill="none" xmlns="http://www.w3.org/2000/svg">
<g clip-path="url(#clip0_36_61)">
<path opacity="0.977" fill-rule="evenodd" clip-rule="evenodd" d="M6.5 -0.5C44.5 -0.5 82.5 -0.5 120.5 -0.5C123.167 1.5 125.5 3.83333 127.5 6.5C127.5 39.5 127.5 72.5 127.5 105.5C124.647 108.807 120.981 110.474 116.5 110.5C116.5 114.5 116.5 118.5 116.5 122.5C120.167 122.5 123.833 122.5 127.5 122.5C127.5 124.167 127.5 125.833 127.5 127.5C84.8333 127.5 42.1667 127.5 -0.5 127.5C-0.5 125.833 -0.5 124.167 -0.5 122.5C3.16667 122.5 6.83333 122.5 10.5 122.5C10.5 118.5 10.5 114.5 10.5 110.5C6.01936 110.474 2.35269 108.807 -0.5 105.5C-0.5 72.5 -0.5 39.5 -0.5 6.5C1.5 3.83333 3.83333 1.5 6.5 -0.5ZM32.5 107.5C34.5 107.5 36.5 107.5 38.5 107.5C38.5 112.5 38.5 117.5 38.5 122.5C36.5 122.5 34.5 122.5 32.5 122.5C32.5 117.5 32.5 112.5 32.5 107.5ZM60.5 107.5C62.5 107.5 64.5 107.5 66.5 107.5C66.5 112.5 66.5 117.5 66.5 122.5C64.5 122.5 62.5 122.5 60.5 122.5C60.5 117.5 60.5 112.5 60.5 107.5ZM88.5 107.5C90.5 107.5 92.5 107.5 94.5 107.5C94.5 112.5 94.5 117.5 94.5 122.5C92.5 122.5 90.5 122.5 88.5 122.5C88.5 117.5 88.5 112.5 88.5 107.5Z" fill="black"/>
<path fill-rule="evenodd" clip-rule="evenodd" d="M8.49999 4.49999C44.5015 4.33334 80.5015 4.5 116.5 4.99999C118.848 5.34587 120.681 6.51254 122 8.49999C122.498 11.4816 122.665 14.4816 122.5 17.5C83.1667 17.5 43.8333 17.5 4.49999 17.5C3.53464 12.3172 4.86797 7.9839 8.49999 4.49999Z" fill="#FC5858"/>
<path fill-rule="evenodd" clip-rule="evenodd" d="M53.5 8.49997C73.1695 8.33335 92.8362 8.50002 112.5 8.99997C113.833 10.3333 113.833 11.6667 112.5 13C92.8333 13.6667 73.1667 13.6667 53.5 13C52.2721 11.5098 52.2721 10.0098 53.5 8.49997Z" fill="#020000"/>
<path fill-rule="evenodd" clip-rule="evenodd" d="M14.5 8.5C17.9563 9.53625 18.2896 11.2029 15.5 13.5C13.2957 12.218 12.9624 10.5514 14.5 8.5Z" fill="#120504"/>
<path fill-rule="evenodd" clip-rule="evenodd" d="M24.5 8.5C27.9563 9.53625 28.2896 11.2029 25.5 13.5C23.2957 12.218 22.9624 10.5514 24.5 8.5Z" fill="#120504"/>
<path fill-rule="evenodd" clip-rule="evenodd" d="M34.5 8.5C37.9563 9.53625 38.2896 11.2029 35.5 13.5C33.2957 12.218 32.9624 10.5514 34.5 8.5Z" fill="#120504"/>
<path fill-rule="evenodd" clip-rule="evenodd" d="M97.5 81.5C97.5 82.8333 97.5 84.1667 97.5 85.5C96.4138 85.62 95.7472 86.2867 95.5 87.5C95.7472 88.7133 96.4138 89.38 97.5 89.5C97.5 90.8333 97.5 92.1667 97.5 93.5C95.8616 97.9126 94.8616 102.579 94.5 107.5C92.5 107.5 90.5 107.5 88.5 107.5C87.6724 101.681 87.1724 95.6807 87 89.5C80.6667 88.1667 74.3333 88.1667 68 89.5C67.8276 95.6807 67.3276 101.681 66.5 107.5C64.5 107.5 62.5 107.5 60.5 107.5C59.669 94.6731 59.169 81.6731 59 68.5C52.6667 67.1667 46.3333 67.1667 40 68.5C39.831 81.6731 39.331 94.6731 38.5 107.5C36.5 107.5 34.5 107.5 32.5 107.5C31.5166 103.702 31.1832 99.7016 31.5 95.5C24.8333 95.5 18.1667 95.5 11.5 95.5C11.5 98.5 11.5 101.5 11.5 104.5C8.95557 104.896 6.7889 104.229 5 102.5C4.50003 75.8354 4.33336 49.1687 4.5 22.5C43.8333 22.5 83.1667 22.5 122.5 22.5C122.667 49.1687 122.5 75.8354 122 102.5C120.211 104.229 118.044 104.896 115.5 104.5C115.667 91.1625 115.5 77.8292 115 64.5C108.916 63.358 102.749 63.1913 96.5 64C95.3611 69.4162 95.1944 74.9162 96 80.5C96.3826 81.056 96.8826 81.3893 97.5 81.5Z" fill="#F7F7F7"/>
<path fill-rule="evenodd" clip-rule="evenodd" d="M11.5 31.5C16.8333 31.5 22.1667 31.5 27.5 31.5C27.5 32.8333 27.5 34.1667 27.5 35.5C22.1667 35.5 16.8333 35.5 11.5 35.5C11.5 34.1667 11.5 32.8333 11.5 31.5Z" fill="#040404"/>
<path fill-rule="evenodd" clip-rule="evenodd" d="M32.5 31.5C34.6648 31.1159 36.3315 31.7826 37.5 33.5C36.3315 35.2174 34.6648 35.8841 32.5 35.5C32.5 34.1667 32.5 32.8333 32.5 31.5Z" fill="#191919"/>
<path fill-rule="evenodd" clip-rule="evenodd" d="M44.5 33.5C54.3511 32.8583 58.5178 37.525 57 47.5C62.1667 52.6667 67.3333 57.8333 72.5 63C75.557 63.2565 78.557 63.7565 81.5 64.5C86.8186 59.6818 91.9853 54.6818 97 49.5C96.7852 46.189 96.7852 42.8557 97 39.5C101.53 32.4117 106.863 31.745 113 37.5C115.674 47.1819 111.841 52.0152 101.5 52C96.3333 57.1667 91.1667 62.3333 86 67.5C87.5664 75.3651 84.3997 80.0317 76.5 81.5C69.2271 78.9543 66.7271 73.9543 69 66.5C63.6232 60.7878 57.9566 55.4545 52 50.5C49.1766 51.409 46.3432 51.5758 43.5 51C39 55.5 34.5 60 30 64.5C31.7089 74.4574 27.5422 78.9574 17.5 78C12.3883 74.5887 11.2217 70.0887 14 64.5C14.9025 63.2985 16.0692 62.4652 17.5 62C20.5 61.6667 23.5 61.3333 26.5 61C31 56.5 35.5 52 40 47.5C39.5441 44.5716 39.5441 41.5716 40 38.5C41.3657 36.6383 42.8657 34.9717 44.5 33.5Z" fill="#10100F"/>
<path fill-rule="evenodd" clip-rule="evenodd" d="M46.5 38.5C48.1439 38.2865 49.6439 38.6198 51 39.5C52.6698 46.1798 50.6698 47.8465 45 44.5C44.2516 42.1599 44.7516 40.1599 46.5 38.5Z" fill="#E8BD68"/>
<path fill-rule="evenodd" clip-rule="evenodd" d="M103.5 38.5C109.488 38.664 110.821 41.164 107.5 46C101.403 46.1475 100.07 43.6475 103.5 38.5Z" fill="#EE5454"/>
<path fill-rule="evenodd" clip-rule="evenodd" d="M11.5 43.5C16.8333 43.5 22.1667 43.5 27.5 43.5C27.5 44.8333 27.5 46.1667 27.5 47.5C22.1667 47.5 16.8333 47.5 11.5 47.5C11.5 46.1667 11.5 44.8333 11.5 43.5Z" fill="#040404"/>
<path fill-rule="evenodd" clip-rule="evenodd" d="M19.5 65.5C25.0204 66.0435 26.3538 68.5435 23.5 73C17.4128 73.2054 16.0795 70.7054 19.5 65.5Z" fill="#97CA60"/>
<path fill-rule="evenodd" clip-rule="evenodd" d="M75.5 68.5C80.2137 68.2008 81.8804 70.2008 80.5 74.5C77.1229 77.4854 74.7895 76.8187 73.5 72.5C73.7517 70.9271 74.4183 69.5938 75.5 68.5Z" fill="#6FC3E9"/>
<path fill-rule="evenodd" clip-rule="evenodd" d="M97.5 93.5C97.5 92.1667 97.5 90.8333 97.5 89.5C98.5862 89.38 99.2528 88.7133 99.5 87.5C99.2528 86.2867 98.5862 85.62 97.5 85.5C97.5 84.1667 97.5 82.8333 97.5 81.5C98.1174 81.3893 98.6174 81.056 99 80.5C99.4988 76.5138 99.6655 72.5138 99.5 68.5C103.5 68.5 107.5 68.5 111.5 68.5C111.5 86.5 111.5 104.5 111.5 122.5C107.5 122.5 103.5 122.5 99.5 122.5C100.14 112.442 99.4733 102.775 97.5 93.5Z" fill="#EC5353"/>
<path fill-rule="evenodd" clip-rule="evenodd" d="M43.5 72.5C47.5 72.5 51.5 72.5 55.5 72.5C55.5 89.1667 55.5 105.833 55.5 122.5C51.5 122.5 47.5 122.5 43.5 122.5C43.5 105.833 43.5 89.1667 43.5 72.5Z" fill="#E1B765"/>
<path fill-rule="evenodd" clip-rule="evenodd" d="M97.5 85.5C98.5862 85.62 99.2528 86.2867 99.5 87.5C99.2528 88.7133 98.5862 89.38 97.5 89.5C96.4138 89.38 95.7472 88.7133 95.5 87.5C95.7472 86.2867 96.4138 85.62 97.5 85.5Z" fill="#110C0B"/>
<path fill-rule="evenodd" clip-rule="evenodd" d="M71.5 93.5C75.5 93.5 79.5 93.5 83.5 93.5C83.5 103.167 83.5 112.833 83.5 122.5C79.5 122.5 75.5 122.5 71.5 122.5C71.5 112.833 71.5 103.167 71.5 93.5Z" fill="#6EC1E5"/>
<path fill-rule="evenodd" clip-rule="evenodd" d="M26.5 122.5C26.5 115.167 26.5 107.833 26.5 100.5C23.1667 100.5 19.8333 100.5 16.5 100.5C16.5 107.833 16.5 115.167 16.5 122.5C15.508 115.018 15.1746 107.352 15.5 99.5C19.5 99.5 23.5 99.5 27.5 99.5C27.8254 107.352 27.492 115.018 26.5 122.5Z" fill="#506C33"/>
<path fill-rule="evenodd" clip-rule="evenodd" d="M26.5 122.5C23.1667 122.5 19.8333 122.5 16.5 122.5C16.5 115.167 16.5 107.833 16.5 100.5C19.8333 100.5 23.1667 100.5 26.5 100.5C26.5 107.833 26.5 115.167 26.5 122.5Z" fill="#A4DC68"/>
</g>
<defs>
<clipPath id="clip0_36_61">
<rect width="128" height="128" fill="white"/>
</clipPath>
</defs>
</svg>
