<svg width="128" height="128" viewBox="0 0 128 128" fill="none" xmlns="http://www.w3.org/2000/svg">
<g clip-path="url(#clip0_36_160)">
<path opacity="0.978" fill-rule="evenodd" clip-rule="evenodd" d="M10.5 -0.5C40.5 -0.5 70.5 -0.5 100.5 -0.5C100.5 2.16667 100.5 4.83333 100.5 7.5C103.167 7.5 105.833 7.5 108.5 7.5C108.5 10.1667 108.5 12.8333 108.5 15.5C111.167 15.5 113.833 15.5 116.5 15.5C116.824 43.5739 116.491 71.5739 115.5 99.5C114.542 99.0472 113.708 98.3805 113 97.5C112.5 71.5021 112.333 45.5021 112.5 19.5C111.167 19.5 109.833 19.5 108.5 19.5C108.667 38.8362 108.5 58.1695 108 77.5C107.617 78.056 107.117 78.3893 106.5 78.5C105.883 78.3893 105.383 78.056 105 77.5C104.5 55.5025 104.333 33.5025 104.5 11.5C103.167 11.5 101.833 11.5 100.5 11.5C100.667 28.17 100.5 44.8367 100 61.5C99.3292 62.2524 98.4959 62.5858 97.5 62.5C96.5029 43.0071 96.1696 23.3404 96.5 3.5C95.5 3.5 94.5 3.5 93.5 3.5C67.1667 3.5 40.8333 3.5 14.5 3.5C14.5 38.1667 14.5 72.8333 14.5 107.5C40.8333 107.5 67.1667 107.5 93.5 107.5C94.5 107.5 95.5 107.5 96.5 107.5C96.3334 94.4957 96.5001 81.4957 97 68.5C97.3826 67.944 97.8826 67.6107 98.5 67.5C99.1174 67.6107 99.6174 67.944 100 68.5C100.823 82.7415 100.656 96.9082 99.5 111C73.8355 111.5 48.1688 111.667 22.5 111.5C22.5 112.833 22.5 114.167 22.5 115.5C49.8333 115.5 77.1667 115.5 104.5 115.5C104.334 105.161 104.5 94.828 105 84.5C105.383 83.944 105.883 83.6107 106.5 83.5C107.117 83.6107 107.617 83.944 108 84.5C108.82 96.0762 108.654 107.576 107.5 119C81.8355 119.5 56.1688 119.667 30.5 119.5C30.5 120.833 30.5 122.167 30.5 123.5C57.8333 123.5 85.1667 123.5 112.5 123.5C112.334 117.158 112.5 110.825 113 104.5C113.671 103.748 114.504 103.414 115.5 103.5C116.492 111.316 116.826 119.316 116.5 127.5C86.5 127.5 56.5 127.5 26.5 127.5C26.5 124.833 26.5 122.167 26.5 119.5C23.8333 119.5 21.1667 119.5 18.5 119.5C18.5 116.833 18.5 114.167 18.5 111.5C15.8333 111.5 13.1667 111.5 10.5 111.5C10.5 74.1667 10.5 36.8333 10.5 -0.5Z" fill="#0C0E11"/>
<path fill-rule="evenodd" clip-rule="evenodd" d="M93.5 3.5C93.5 38.1667 93.5 72.8333 93.5 107.5C67.1667 107.5 40.8333 107.5 14.5 107.5C14.5 72.8333 14.5 38.1667 14.5 3.5C40.8333 3.5 67.1667 3.5 93.5 3.5Z" fill="#CDD6E4"/>
<path fill-rule="evenodd" clip-rule="evenodd" d="M93.5 3.5C94.5 3.5 95.5 3.5 96.5 3.5C96.1696 23.3404 96.5029 43.0071 97.5 62.5C98.3007 64.0418 98.634 65.7085 98.5 67.5C97.8826 67.6107 97.3826 67.944 97 68.5C96.5001 81.4957 96.3334 94.4957 96.5 107.5C95.5 107.5 94.5 107.5 93.5 107.5C93.5 72.8333 93.5 38.1667 93.5 3.5Z" fill="#B7C9E8"/>
<path fill-rule="evenodd" clip-rule="evenodd" d="M20.5 9.5C30.1667 9.5 39.8333 9.5 49.5 9.5C49.6665 21.8378 49.4999 34.1712 49 46.5C39.5834 47.4851 30.0834 47.8184 20.5 47.5C20.5 34.8333 20.5 22.1667 20.5 9.5Z" fill="#080909"/>
<path fill-rule="evenodd" clip-rule="evenodd" d="M54.5 9.5C66.5 9.5 78.5 9.5 90.5 9.5C90.7935 13.4367 90.4601 17.27 89.5 21C78.1667 21.6667 66.8333 21.6667 55.5 21C54.5399 17.27 54.2065 13.4367 54.5 9.5Z" fill="#050509"/>
<path fill-rule="evenodd" clip-rule="evenodd" d="M106.5 78.5C106.5 80.1667 106.5 81.8333 106.5 83.5C105.883 83.6107 105.383 83.944 105 84.5C104.5 94.828 104.334 105.161 104.5 115.5C77.1667 115.5 49.8333 115.5 22.5 115.5C22.5 114.167 22.5 112.833 22.5 111.5C48.1688 111.667 73.8355 111.5 99.5 111C100.656 96.9082 100.823 82.7415 100 68.5C99.6174 67.944 99.1174 67.6107 98.5 67.5C98.634 65.7085 98.3007 64.0418 97.5 62.5C98.4959 62.5858 99.3292 62.2524 100 61.5C100.5 44.8367 100.667 28.17 100.5 11.5C101.833 11.5 103.167 11.5 104.5 11.5C104.333 33.5025 104.5 55.5025 105 77.5C105.383 78.056 105.883 78.3893 106.5 78.5Z" fill="#A0B7E0"/>
<path fill-rule="evenodd" clip-rule="evenodd" d="M58.5 13.5C67.9856 12.5062 77.6522 12.1729 87.5 12.5C87.7845 14.4147 87.4511 16.0813 86.5 17.5C86.5 16.1667 86.5 14.8333 86.5 13.5C77.1667 13.5 67.8333 13.5 58.5 13.5Z" fill="#363F7E"/>
<path fill-rule="evenodd" clip-rule="evenodd" d="M45.5 13.5C38.5 13.5 31.5 13.5 24.5 13.5C24.5 23.5 24.5 33.5 24.5 43.5C31.5 43.5 38.5 43.5 45.5 43.5C38.3524 44.4916 31.0191 44.825 23.5 44.5C23.5 33.8333 23.5 23.1667 23.5 12.5C31.0191 12.175 38.3524 12.5084 45.5 13.5Z" fill="#782F4E"/>
<path fill-rule="evenodd" clip-rule="evenodd" d="M45.5 13.5C45.5 23.5 45.5 33.5 45.5 43.5C38.5 43.5 31.5 43.5 24.5 43.5C24.5 33.5 24.5 23.5 24.5 13.5C31.5 13.5 38.5 13.5 45.5 13.5Z" fill="#DC568F"/>
<path fill-rule="evenodd" clip-rule="evenodd" d="M58.5 13.5C67.8333 13.5 77.1667 13.5 86.5 13.5C86.5 14.8333 86.5 16.1667 86.5 17.5C77.1667 17.5 67.8333 17.5 58.5 17.5C58.5 16.1667 58.5 14.8333 58.5 13.5Z" fill="#5766CB"/>
<path fill-rule="evenodd" clip-rule="evenodd" d="M115.5 99.5C115.5 100.833 115.5 102.167 115.5 103.5C114.504 103.414 113.671 103.748 113 104.5C112.5 110.825 112.334 117.158 112.5 123.5C85.1667 123.5 57.8333 123.5 30.5 123.5C30.5 122.167 30.5 120.833 30.5 119.5C56.1688 119.667 81.8355 119.5 107.5 119C108.654 107.576 108.82 96.0762 108 84.5C107.617 83.944 107.117 83.6107 106.5 83.5C106.5 81.8333 106.5 80.1667 106.5 78.5C107.117 78.3893 107.617 78.056 108 77.5C108.5 58.1695 108.667 38.8362 108.5 19.5C109.833 19.5 111.167 19.5 112.5 19.5C112.333 45.5021 112.5 71.5021 113 97.5C113.708 98.3805 114.542 99.0472 115.5 99.5Z" fill="#7297D2"/>
<path fill-rule="evenodd" clip-rule="evenodd" d="M55.5 26.5C66.8382 26.3335 78.1716 26.5001 89.5 27C90.8333 28 90.8333 29 89.5 30C78.1667 30.6667 66.8333 30.6667 55.5 30C54.3157 28.8545 54.3157 27.6879 55.5 26.5Z" fill="#111112"/>
<path fill-rule="evenodd" clip-rule="evenodd" d="M55.5 34.5C66.8382 34.3335 78.1716 34.5001 89.5 35C90.3366 36.0113 90.67 37.1779 90.5 38.5C78.8286 38.6665 67.1619 38.4999 55.5 38C54.3157 36.8545 54.3157 35.6879 55.5 34.5Z" fill="#141516"/>
<path fill-rule="evenodd" clip-rule="evenodd" d="M55.5 43.5C66.8382 43.3335 78.1716 43.5001 89.5 44C90.3366 45.0113 90.67 46.1779 90.5 47.5C78.5 47.5 66.5 47.5 54.5 47.5C54.4326 46.0413 54.7659 44.7079 55.5 43.5Z" fill="#191A1B"/>
<path fill-rule="evenodd" clip-rule="evenodd" d="M20.5 53.5C24.8333 53.5 29.1667 53.5 33.5 53.5C33.5 54.5 33.5 55.5 33.5 56.5C29.1667 56.5 24.8333 56.5 20.5 56.5C20.5 55.5 20.5 54.5 20.5 53.5Z" fill="#020202"/>
<path fill-rule="evenodd" clip-rule="evenodd" d="M39.5 53.5C56.5 53.5 73.5 53.5 90.5 53.5C90.5 54.5 90.5 55.5 90.5 56.5C73.5 56.5 56.5 56.5 39.5 56.5C39.5 55.5 39.5 54.5 39.5 53.5Z" fill="#020202"/>
<path fill-rule="evenodd" clip-rule="evenodd" d="M20.5 62.5C24.8333 62.5 29.1667 62.5 33.5 62.5C33.5 63.5 33.5 64.5 33.5 65.5C29.1667 65.5 24.8333 65.5 20.5 65.5C20.5 64.5 20.5 63.5 20.5 62.5Z" fill="#010102"/>
<path fill-rule="evenodd" clip-rule="evenodd" d="M39.5 62.5C56.5 62.5 73.5 62.5 90.5 62.5C90.5 63.5 90.5 64.5 90.5 65.5C73.5 65.5 56.5 65.5 39.5 65.5C39.5 64.5 39.5 63.5 39.5 62.5Z" fill="#020202"/>
<path fill-rule="evenodd" clip-rule="evenodd" d="M20.5 71.5C24.8333 71.5 29.1667 71.5 33.5 71.5C33.5 72.5 33.5 73.5 33.5 74.5C29.1667 74.5 24.8333 74.5 20.5 74.5C20.5 73.5 20.5 72.5 20.5 71.5Z" fill="#010202"/>
<path fill-rule="evenodd" clip-rule="evenodd" d="M39.5 71.5C56.5 71.5 73.5 71.5 90.5 71.5C90.5 72.5 90.5 73.5 90.5 74.5C73.5 74.5 56.5 74.5 39.5 74.5C39.5 73.5 39.5 72.5 39.5 71.5Z" fill="#020202"/>
<path fill-rule="evenodd" clip-rule="evenodd" d="M20.5 80.5C24.8333 80.5 29.1667 80.5 33.5 80.5C33.5 81.5 33.5 82.5 33.5 83.5C29.1667 83.5 24.8333 83.5 20.5 83.5C20.5 82.5 20.5 81.5 20.5 80.5Z" fill="#020203"/>
<path fill-rule="evenodd" clip-rule="evenodd" d="M39.5 80.5C56.5 80.5 73.5 80.5 90.5 80.5C90.5 81.5 90.5 82.5 90.5 83.5C73.5 83.5 56.5 83.5 39.5 83.5C39.5 82.5 39.5 81.5 39.5 80.5Z" fill="#020202"/>
<path fill-rule="evenodd" clip-rule="evenodd" d="M20.5 89.5C24.8333 89.5 29.1667 89.5 33.5 89.5C33.5 90.8333 33.5 92.1667 33.5 93.5C29.4862 93.6655 25.4862 93.4988 21.5 93C20.6634 91.9887 20.33 90.8221 20.5 89.5Z" fill="#151617"/>
<path fill-rule="evenodd" clip-rule="evenodd" d="M40.5 89.5C56.8367 89.3334 73.1701 89.5001 89.5 90C90.8333 91 90.8333 92 89.5 93C73.1667 93.6667 56.8333 93.6667 40.5 93C39.3157 91.8545 39.3157 90.6879 40.5 89.5Z" fill="#131415"/>
</g>
<defs>
<clipPath id="clip0_36_160">
<rect width="128" height="128" fill="white"/>
</clipPath>
</defs>
</svg>
