<svg width="20" height="20" viewBox="0 0 20 20" fill="none" xmlns="http://www.w3.org/2000/svg">
<g clip-path="url(#clip0_1_81)">
<path d="M18.6309 16.3482C16.5055 15.3884 16.4247 11.2684 16.4231 11.1645V8.40047C16.4231 5.74027 14.7976 3.45278 12.4876 2.4788C12.4826 1.11111 11.3687 0 9.99999 0C8.63127 0 7.51737 1.11118 7.51237 2.47873C5.2025 3.45272 3.57691 5.74021 3.57691 8.40041V11.1644C3.57541 11.2684 3.49449 15.3883 1.36903 16.3481C1.12691 16.4575 0.993834 16.7211 1.04981 16.9808C1.10573 17.2406 1.33544 17.4261 1.60116 17.4261H6.9894C7.09986 18.0338 7.38718 18.5991 7.82662 19.0569C8.41028 19.665 9.18215 19.9999 9.9999 19.9999C10.8177 19.9999 11.5896 19.665 12.1732 19.0569C12.6127 18.599 12.9 18.0337 13.0104 17.4261H18.3986C18.6644 17.4261 18.894 17.2406 18.95 16.9808C19.0061 16.7211 18.873 16.4575 18.6309 16.3482ZM15.8311 14.3745C16.0546 15.0519 16.371 15.7322 16.8196 16.2982H3.18034C3.6289 15.7322 3.94528 15.052 4.16871 14.3745H15.8311ZM9.99999 1.12794C10.6191 1.12794 11.1426 1.54396 11.3064 2.11102C10.8844 2.0235 10.4475 1.97736 9.99999 1.97736C9.55251 1.97736 9.11558 2.02347 8.69362 2.11102C8.85744 1.54399 9.38091 1.12794 9.99999 1.12794ZM4.70485 11.1679V8.40037C4.70485 5.48066 7.08022 3.1053 9.99999 3.1053C12.9198 3.1053 15.2951 5.48066 15.2951 8.40037V11.1725C15.2959 11.2573 15.3091 12.1489 15.5338 13.2465H4.46606C4.6909 12.1479 4.70417 11.2547 4.70485 11.1679ZM9.99999 18.8721C9.13918 18.8721 8.3879 18.2514 8.14676 17.4261H11.8532C11.612 18.2514 10.8609 18.8721 9.99999 18.8721Z" fill="black"/>
<path d="M10.0002 3.89658C7.5737 3.89658 5.59961 5.8706 5.59961 8.29704C5.59961 8.60851 5.85213 8.86103 6.1636 8.86103C6.47507 8.86103 6.72759 8.60851 6.72759 8.29704C6.72759 6.49256 8.19566 5.02452 10.0002 5.02452C10.3117 5.02452 10.5642 4.772 10.5642 4.46053C10.5642 4.14903 10.3116 3.89658 10.0002 3.89658Z" fill="black"/>
</g>
<defs>
<clipPath id="clip0_1_81">
<rect width="20" height="20" fill="white"/>
</clipPath>
</defs>
</svg>
