<svg width="128" height="128" viewBox="0 0 128 128" fill="none" xmlns="http://www.w3.org/2000/svg">
<path opacity="0.952" fill-rule="evenodd" clip-rule="evenodd" d="M67.5 5.49999C78.9439 3.77819 89.2772 6.27819 98.5 13C103.167 18.3333 107.833 23.6667 112.5 29C116.753 29.1998 120.92 29.6998 125 30.5C125.816 39.4117 125.65 48.245 124.5 57C119.833 57.6667 115.167 57.6667 110.5 57C106.773 50.0771 101.107 46.2438 93.5 45.5C93.5 48.1667 93.5 50.8333 93.5 53.5C81.5 53.5 69.5 53.5 57.5 53.5C57.5 49.5 57.5 45.5 57.5 41.5C52.2642 42.298 47.7642 40.9646 44 37.5C39.1967 37.6119 37.6967 39.7786 39.5 44C42.6883 45.3158 46.0217 45.8158 49.5 45.5C49.5 49.5 49.5 53.5 49.5 57.5C63.1667 57.5 76.8333 57.5 90.5 57.5C89.5283 67.4194 86.195 76.4194 80.5 84.5C89.5698 84.9135 91.9031 89.0802 87.5 97C84.8333 97.3333 82.1667 97.6667 79.5 98C80 98.5 80.5 99 81 99.5C81.6667 107.5 81.6667 115.5 81 123.5C80.5 124 80 124.5 79.5 125C61.5619 125.301 43.5619 125.301 25.5 125C18.1349 122.114 10.4682 120.78 2.5 121C1.34803 110.91 1.18137 100.744 2 90.5C6.74878 89.6948 11.5821 89.1948 16.5 89C20.0871 87.7903 23.4205 86.2903 26.5 84.5C12.2352 68.495 9.73521 50.8283 19 31.5C26.7549 21.5387 36.9216 16.872 49.5 17.5C49.5 20.1667 49.5 22.8333 49.5 25.5C52.1667 25.5 54.8333 25.5 57.5 25.5C57.5 20.1667 57.5 14.8333 57.5 9.49999C61.8628 10.264 65.1961 8.93062 67.5 5.49999Z" fill="#040402"/>
<path fill-rule="evenodd" clip-rule="evenodd" d="M69.5 9.50001C79.5981 8.64836 88.5981 11.315 96.5 17.5C100.432 22.355 104.599 27.0217 109 31.5C109.667 37.1667 109.667 42.8333 109 48.5C104.95 42.9233 99.4501 40.4233 92.5 41C85.6379 38.8039 80.6379 34.4706 77.5 28C78.4085 25.6807 80.0752 25.0141 82.5 26C85.6047 32.2191 90.6047 34.7191 97.5 33.5C97.5 32.1667 97.5 30.8333 97.5 29.5C95.1432 29.6633 92.8098 29.4966 90.5 29C88.5897 24.5176 85.923 20.5176 82.5 17C78.5388 15.4017 74.5388 13.9017 70.5 12.5C69.6143 11.675 69.281 10.675 69.5 9.50001Z" fill="#E8C9AE"/>
<path fill-rule="evenodd" clip-rule="evenodd" d="M61.5 13.5C63.1992 13.3398 64.8659 13.5065 66.5 14C71.0439 16.5186 75.7105 18.852 80.5 21C75.4667 22.3446 73.3 25.5112 74 30.5C77.2367 37.2447 82.4033 41.578 89.5 43.5C89.5 45.5 89.5 47.5 89.5 49.5C80.1667 49.5 70.8333 49.5 61.5 49.5C61.5 45.5 61.5 41.5 61.5 37.5C58.1501 37.665 54.8168 37.4983 51.5 37C48.8333 34.6667 48.8333 32.3333 51.5 30C54.8168 29.5017 58.1501 29.335 61.5 29.5C61.5 24.1667 61.5 18.8333 61.5 13.5Z" fill="#F9D46E"/>
<path fill-rule="evenodd" clip-rule="evenodd" d="M40.5 21.5C42.1667 21.5 43.8333 21.5 45.5 21.5C45.5 25.5 45.5 29.5 45.5 33.5C34.1675 33.3438 31.1675 38.1772 36.5 48C39.3508 49.2886 42.3508 49.7886 45.5 49.5C45.5 52.1667 45.5 54.8333 45.5 57.5C36.1667 57.5 26.8333 57.5 17.5 57.5C16.3223 39.7063 23.9889 27.7063 40.5 21.5Z" fill="#F8D36E"/>
<path fill-rule="evenodd" clip-rule="evenodd" d="M113.5 33.5C116.167 33.5 118.833 33.5 121.5 33.5C121.5 40.1667 121.5 46.8333 121.5 53.5C118.833 53.5 116.167 53.5 113.5 53.5C113.5 46.8333 113.5 40.1667 113.5 33.5Z" fill="#75B1F2"/>
<path fill-rule="evenodd" clip-rule="evenodd" d="M19.5 61.5C28.1667 61.5 36.8333 61.5 45.5 61.5C45.5 64.1667 45.5 66.8333 45.5 69.5C48.8499 69.335 52.1832 69.5017 55.5 70C58.1667 72.3333 58.1667 74.6667 55.5 77C52.1832 77.4983 48.8499 77.665 45.5 77.5C45.5 80.1667 45.5 82.8333 45.5 85.5C41.1539 85.6657 36.8206 85.499 32.5 85C29.7886 81.0776 26.9553 77.2443 24 73.5C21.6361 69.7814 20.1361 65.7814 19.5 61.5Z" fill="#F9D56F"/>
<path fill-rule="evenodd" clip-rule="evenodd" d="M49.5 61.5C61.1667 61.5 72.8333 61.5 84.5 61.5C83.9213 67.0723 82.4213 72.4057 80 77.5C74.7833 83.0531 70.7833 89.3864 68 96.5C62.0136 101.078 55.1802 102.578 47.5 101C48.1667 100.333 48.8333 99.6667 49.5 99C55.6918 99.7487 59.6918 97.2487 61.5 91.5C61.2395 89.8129 60.5728 88.3129 59.5 87C56.3117 85.6842 52.9783 85.1842 49.5 85.5C49.5 84.1667 49.5 82.8333 49.5 81.5C56.5463 82.6846 60.5463 79.8512 61.5 73C61.2971 70.5941 60.2971 68.5941 58.5 67C55.6074 65.8512 52.6074 65.3512 49.5 65.5C49.5 64.1667 49.5 62.8333 49.5 61.5Z" fill="#F7D36E"/>
<path fill-rule="evenodd" clip-rule="evenodd" d="M26.5 89.5C36.5056 89.3335 46.5056 89.5002 56.5 90C57.731 91.1827 57.731 92.3493 56.5 93.5C52.8691 94.3521 49.2024 95.0188 45.5 95.5C44.7764 99.8802 42.1097 101.88 37.5 101.5C37.5 102.833 37.5 104.167 37.5 105.5C38.8333 105.5 40.1667 105.5 41.5 105.5C40.5884 111.324 41.9218 116.49 45.5 121C39.1667 121.667 32.8333 121.667 26.5 121C23.5945 119.963 20.7612 118.796 18 117.5C17.3333 109.5 17.3333 101.5 18 93.5C20.9692 92.2632 23.8026 90.9299 26.5 89.5Z" fill="#ECCDB1"/>
<path fill-rule="evenodd" clip-rule="evenodd" d="M75.5 89.5C78.5184 89.3354 81.5184 89.502 84.5 90C85.8333 91 85.8333 92 84.5 93C80.8333 93.6667 77.1667 93.6667 73.5 93C74.305 91.8873 74.9717 90.7206 75.5 89.5Z" fill="#E9CAAF"/>
<path fill-rule="evenodd" clip-rule="evenodd" d="M5.5 93.5C8.16667 93.5 10.8333 93.5 13.5 93.5C13.5 101.5 13.5 109.5 13.5 117.5C10.8333 117.5 8.16667 117.5 5.5 117.5C5.5 109.5 5.5 101.5 5.5 93.5Z" fill="#B3DD7E"/>
<path fill-rule="evenodd" clip-rule="evenodd" d="M66.5 101.5C69.8499 101.335 73.1832 101.502 76.5 102C77.8333 103 77.8333 104 76.5 105C73.1667 105.667 69.8333 105.667 66.5 105C65.3157 103.855 65.3157 102.688 66.5 101.5Z" fill="#EBCBB0"/>
<path fill-rule="evenodd" clip-rule="evenodd" d="M45.5 105.5C51.1667 105.5 56.8333 105.5 62.5 105.5C62.5 106.833 62.5 108.167 62.5 109.5C56.8333 109.5 51.1667 109.5 45.5 109.5C45.5 108.167 45.5 106.833 45.5 105.5Z" fill="#C9CED6"/>
<path fill-rule="evenodd" clip-rule="evenodd" d="M66.5 109.5C69.8499 109.335 73.1832 109.502 76.5 110C77.8333 111 77.8333 112 76.5 113C73.1667 113.667 69.8333 113.667 66.5 113C65.3157 111.855 65.3157 110.688 66.5 109.5Z" fill="#EBCBB0"/>
<path fill-rule="evenodd" clip-rule="evenodd" d="M46.5 113.5C51.8333 113.5 57.1667 113.5 62.5 113.5C62.9024 118.93 60.4024 121.597 55 121.5C49.8815 121.201 47.0482 118.534 46.5 113.5Z" fill="#A5ACB7"/>
<path fill-rule="evenodd" clip-rule="evenodd" d="M66.5 117.5C69.8499 117.335 73.1832 117.502 76.5 118C77.8333 119 77.8333 120 76.5 121C73.1667 121.667 69.8333 121.667 66.5 121C65.3157 119.855 65.3157 118.688 66.5 117.5Z" fill="#EBCBB0"/>
</svg>
