<?xml version="1.0" encoding="UTF-8"?>
<!DOCTYPE svg PUBLIC "-//W3C//DTD SVG 1.1//EN" "http://www.w3.org/Graphics/SVG/1.1/DTD/svg11.dtd">
<svg xmlns="http://www.w3.org/2000/svg" version="1.1" width="256px" height="256px" style="shape-rendering:geometricPrecision; text-rendering:geometricPrecision; image-rendering:optimizeQuality; fill-rule:evenodd; clip-rule:evenodd" xmlns:xlink="http://www.w3.org/1999/xlink">
<g><path style="opacity:0.969" fill="#010202" d="M 37.5,-0.5 C 105.5,-0.5 173.5,-0.5 241.5,-0.5C 245.232,1.40474 247.732,4.40474 249,8.5C 249.667,87.8333 249.667,167.167 249,246.5C 247.732,250.595 245.232,253.595 241.5,255.5C 173.5,255.5 105.5,255.5 37.5,255.5C 33.768,253.595 31.268,250.595 30,246.5C 29.5003,238.173 29.3336,229.84 29.5,221.5C 23.7104,221.904 18.0438,221.404 12.5,220C 3.16667,212 3.16667,204 12.5,196C 18.0438,194.596 23.7104,194.096 29.5,194.5C 29.5,185.833 29.5,177.167 29.5,168.5C 26.1501,168.665 22.8168,168.498 19.5,168C 18.1175,166.729 17.1175,165.229 16.5,163.5C 17.4778,163.189 18.1445,162.522 18.5,161.5C 28.9922,160.833 39.3255,160.167 49.5,159.5C 53.254,158.172 54.4207,155.506 53,151.5C 52.6924,150.692 52.1924,150.025 51.5,149.5C 44.224,148.535 36.8907,148.201 29.5,148.5C 25.1539,148.334 20.8206,148.501 16.5,149C 14.114,150.887 12.9473,153.387 13,156.5C 12.0053,157.066 11.172,157.733 10.5,158.5C 7.1779,158.511 5.51124,156.845 5.5,153.5C 6.41027,147.42 9.7436,143.254 15.5,141C 20.1548,140.501 24.8215,140.334 29.5,140.5C 29.5,131.833 29.5,123.167 29.5,114.5C 23.2376,115.128 17.2376,114.295 11.5,112C 3.13145,103.247 3.79812,95.2466 13.5,88C 18.7539,86.7288 24.0873,86.2288 29.5,86.5C 29.5,77.8333 29.5,69.1667 29.5,60.5C 23.7104,60.9038 18.0438,60.4038 12.5,59C 3.16667,51 3.16667,43 12.5,35C 18.0438,33.5962 23.7104,33.0962 29.5,33.5C 29.3336,25.16 29.5003,16.8267 30,8.5C 31.268,4.40474 33.768,1.40474 37.5,-0.5 Z"/></g>
<g><path style="opacity:1" fill="#2487fd" d="M 40.5,7.5 C 60.178,7.16705 79.8446,7.50038 99.5,8.5C 97.8062,10.5543 96.6395,12.8877 96,15.5C 95.5001,27.1619 95.3335,38.8286 95.5,50.5C 89.8236,50.3339 84.1569,50.5006 78.5,51C 74,52.8333 70.8333,56 69,60.5C 68.3333,76.1667 68.3333,91.8333 69,107.5C 70.8333,112 74,115.167 78.5,117C 84.1569,117.499 89.8236,117.666 95.5,117.5C 95.3333,158.168 95.5,198.835 96,239.5C 96.6395,242.112 97.8062,244.446 99.5,246.5C 79.8446,247.5 60.178,247.833 40.5,247.5C 39.5416,247.047 38.7083,246.381 38,245.5C 37.5003,237.507 37.3336,229.507 37.5,221.5C 43.7624,222.128 49.7624,221.295 55.5,219C 64.5801,209.224 63.2468,201.224 51.5,195C 46.8452,194.501 42.1785,194.334 37.5,194.5C 37.5,185.5 37.5,176.5 37.5,167.5C 43.2617,167.851 48.9284,167.351 54.5,166C 64.1193,157.645 63.786,149.645 53.5,142C 48.1771,141.501 42.8437,141.334 37.5,141.5C 37.5,132.167 37.5,122.833 37.5,113.5C 42.8437,113.666 48.1771,113.499 53.5,113C 60.6413,108.576 62.8079,102.409 60,94.5C 58.8333,92 57,90.1667 54.5,89C 48.9284,87.6493 43.2617,87.1493 37.5,87.5C 37.5,78.5 37.5,69.5 37.5,60.5C 43.7624,61.128 49.7624,60.2946 55.5,58C 64.5327,48.259 63.1993,40.259 51.5,34C 46.8452,33.5008 42.1785,33.3342 37.5,33.5C 37.3336,25.4931 37.5003,17.4931 38,9.5C 38.7083,8.61947 39.5416,7.9528 40.5,7.5 Z"/></g>
<g><path style="opacity:1" fill="#56a2fc" d="M 40.5,7.5 C 67.8313,6.83336 95.3313,6.50002 123,6.5C 151.251,6.34107 179.418,6.84107 207.5,8C 208,8.5 208.5,9 209,9.5C 209.667,88.1667 209.667,166.833 209,245.5C 208.5,246 208,246.5 207.5,247C 179.418,248.159 151.251,248.659 123,248.5C 95.3313,248.5 67.8313,248.167 40.5,247.5C 60.178,247.833 79.8446,247.5 99.5,246.5C 97.8062,244.446 96.6395,242.112 96,239.5C 95.5,198.835 95.3333,158.168 95.5,117.5C 106.838,117.667 118.172,117.5 129.5,117C 130.823,116.184 131.489,115.017 131.5,113.5C 134.609,113.736 137.609,113.403 140.5,112.5C 140.286,114.144 140.62,115.644 141.5,117C 171.055,124.766 183.388,113.766 178.5,84C 178.333,76.1667 178.167,68.3333 178,60.5C 176.167,56 173,52.8333 168.5,51C 144.169,50.5 119.836,50.3334 95.5,50.5C 95.3335,38.8286 95.5001,27.1619 96,15.5C 96.6395,12.8877 97.8062,10.5543 99.5,8.5C 79.8446,7.50038 60.178,7.16705 40.5,7.5 Z"/></g>
<g><path style="opacity:1" fill="#c2daee" d="M 239.5,22.5 C 232.352,21.5084 225.019,21.175 217.5,21.5C 217.817,17.2984 217.483,13.2984 216.5,9.5C 216.5,8.5 216.5,7.5 216.5,6.5C 224.279,6.06794 231.946,6.56794 239.5,8C 240,8.5 240.5,9 241,9.5C 241.167,11.6667 241.333,13.8333 241.5,16C 241.467,18.6103 240.8,20.777 239.5,22.5 Z"/></g>
<g><path style="opacity:1" fill="#6b7b8a" d="M 216.5,9.5 C 217.483,13.2984 217.817,17.2984 217.5,21.5C 225.019,21.175 232.352,21.5084 239.5,22.5C 231.833,22.5 224.167,22.5 216.5,22.5C 216.5,18.1667 216.5,13.8333 216.5,9.5 Z"/></g>
<g><path style="opacity:1" fill="#7e0017" d="M 217.5,29.5 C 217.5,49.5 217.5,69.5 217.5,89.5C 221.5,89.5 225.5,89.5 229.5,89.5C 233.5,89.5 237.5,89.5 241.5,89.5C 233.35,90.4927 225.017,90.8261 216.5,90.5C 216.17,69.9931 216.503,49.6598 217.5,29.5 Z"/></g>
<g><path style="opacity:1" fill="#d80027" d="M 217.5,29.5 C 224.687,29.1755 231.687,29.5088 238.5,30.5C 235.5,30.5 232.5,30.5 229.5,30.5C 229.5,50.1667 229.5,69.8333 229.5,89.5C 225.5,89.5 221.5,89.5 217.5,89.5C 217.5,69.5 217.5,49.5 217.5,29.5 Z"/></g>
<g><path style="opacity:1" fill="#fe0b37" d="M 238.5,30.5 C 239.75,30.5774 240.583,31.244 241,32.5C 241.5,51.4971 241.667,70.4971 241.5,89.5C 237.5,89.5 233.5,89.5 229.5,89.5C 229.5,69.8333 229.5,50.1667 229.5,30.5C 232.5,30.5 235.5,30.5 238.5,30.5 Z"/></g>
<g><path style="opacity:1" fill="#c3c2c7" d="M 29.5,41.5 C 26.8333,45.1667 26.8333,48.8333 29.5,52.5C 25.1539,52.6657 20.8206,52.499 16.5,52C 12.5,48.6667 12.5,45.3333 16.5,42C 20.8206,41.501 25.1539,41.3343 29.5,41.5 Z"/></g>
<g><path style="opacity:1" fill="#dedee0" d="M 29.5,41.5 C 36.8409,41.3337 44.1742,41.5003 51.5,42C 54.1667,45.3333 54.1667,48.6667 51.5,52C 44.1742,52.4997 36.8409,52.6663 29.5,52.5C 26.8333,48.8333 26.8333,45.1667 29.5,41.5 Z"/></g>
<g><path style="opacity:1" fill="#05070a" d="M 95.5,50.5 C 119.836,50.3334 144.169,50.5 168.5,51C 173,52.8333 176.167,56 178,60.5C 178.167,68.3333 178.333,76.1667 178.5,84C 183.388,113.766 171.055,124.766 141.5,117C 140.62,115.644 140.286,114.144 140.5,112.5C 140.611,111.883 140.944,111.383 141.5,111C 149.5,110.667 157.5,110.333 165.5,110C 168.333,109.167 170.167,107.333 171,104.5C 171.667,90.8333 171.667,77.1667 171,63.5C 170.426,61.508 169.259,60.008 167.5,59C 143.502,58.5 119.502,58.3334 95.5,58.5C 90.1563,58.334 84.8229,58.5006 79.5,59C 77.741,60.008 76.5743,61.508 76,63.5C 75.3333,77.1667 75.3333,90.8333 76,104.5C 76.7739,106.939 78.2739,108.773 80.5,110C 96.4965,110.5 112.497,110.667 128.5,110.5C 129.833,111.167 130.833,112.167 131.5,113.5C 131.489,115.017 130.823,116.184 129.5,117C 118.172,117.5 106.838,117.667 95.5,117.5C 89.8236,117.666 84.1569,117.499 78.5,117C 74,115.167 70.8333,112 69,107.5C 68.3333,91.8333 68.3333,76.1667 69,60.5C 70.8333,56 74,52.8333 78.5,51C 84.1569,50.5006 89.8236,50.3339 95.5,50.5 Z"/></g>
<g><path style="opacity:1" fill="#a4f3ea" d="M 95.5,58.5 C 95.5,75.5 95.5,92.5 95.5,109.5C 106.679,109.172 117.679,109.505 128.5,110.5C 112.497,110.667 96.4965,110.5 80.5,110C 78.2739,108.773 76.7739,106.939 76,104.5C 75.3333,90.8333 75.3333,77.1667 76,63.5C 76.5743,61.508 77.741,60.008 79.5,59C 84.8229,58.5006 90.1563,58.334 95.5,58.5 Z"/></g>
<g><path style="opacity:1" fill="#dafcf8" d="M 95.5,58.5 C 119.502,58.3334 143.502,58.5 167.5,59C 169.259,60.008 170.426,61.508 171,63.5C 171.667,77.1667 171.667,90.8333 171,104.5C 170.167,107.333 168.333,109.167 165.5,110C 157.5,110.333 149.5,110.667 141.5,111C 140.944,111.383 140.611,111.883 140.5,112.5C 137.609,113.403 134.609,113.736 131.5,113.5C 130.833,112.167 129.833,111.167 128.5,110.5C 117.679,109.505 106.679,109.172 95.5,109.5C 95.5,92.5 95.5,75.5 95.5,58.5 Z"/></g>
<g><path style="opacity:1" fill="#bab9bd" d="M 49.5,95.5 C 42.4684,95.1697 35.4684,95.503 28.5,96.5C 26.9685,100.095 27.3018,103.428 29.5,106.5C 25.1539,106.666 20.8206,106.499 16.5,106C 12.9083,103.029 12.5749,99.696 15.5,96C 21.3953,94.8756 27.3953,94.3756 33.5,94.5C 39.0108,94.5006 44.3441,94.8339 49.5,95.5 Z"/></g>
<g><path style="opacity:1" fill="#dedee0" d="M 49.5,95.5 C 53.254,96.8276 54.4207,99.4942 53,103.5C 52.6924,104.308 52.1924,104.975 51.5,105.5C 44.224,106.465 36.8907,106.799 29.5,106.5C 27.3018,103.428 26.9685,100.095 28.5,96.5C 35.4684,95.503 42.4684,95.1697 49.5,95.5 Z"/></g>
<g><path style="opacity:1" fill="#927d27" d="M 217.5,97.5 C 217.5,117.5 217.5,137.5 217.5,157.5C 221.5,157.5 225.5,157.5 229.5,157.5C 229.5,157.833 229.5,158.167 229.5,158.5C 225.167,158.5 220.833,158.5 216.5,158.5C 216.17,137.993 216.503,117.66 217.5,97.5 Z"/></g>
<g><path style="opacity:1" fill="#fed945" d="M 217.5,97.5 C 221.5,97.5 225.5,97.5 229.5,97.5C 229.5,117.5 229.5,137.5 229.5,157.5C 225.5,157.5 221.5,157.5 217.5,157.5C 217.5,137.5 217.5,117.5 217.5,97.5 Z"/></g>
<g><path style="opacity:1" fill="#fde276" d="M 229.5,97.5 C 233.5,97.5 237.5,97.5 241.5,97.5C 241.5,118.833 241.5,140.167 241.5,161.5C 238.5,161.5 235.5,161.5 232.5,161.5C 232.5,159.5 231.5,158.5 229.5,158.5C 229.5,158.167 229.5,157.833 229.5,157.5C 229.5,137.5 229.5,117.5 229.5,97.5 Z"/></g>
<g><path style="opacity:1" fill="#bdbcc1" d="M 29.5,148.5 C 27.3018,151.572 26.9685,154.905 28.5,158.5C 35.4684,159.497 42.4684,159.83 49.5,159.5C 39.3255,160.167 28.9922,160.833 18.5,161.5C 18.1445,162.522 17.4778,163.189 16.5,163.5C 13.3013,163.238 11.3013,161.572 10.5,158.5C 11.172,157.733 12.0053,157.066 13,156.5C 12.9473,153.387 14.114,150.887 16.5,149C 20.8206,148.501 25.1539,148.334 29.5,148.5 Z"/></g>
<g><path style="opacity:1" fill="#dedee0" d="M 29.5,148.5 C 36.8907,148.201 44.224,148.535 51.5,149.5C 52.1924,150.025 52.6924,150.692 53,151.5C 54.4207,155.506 53.254,158.172 49.5,159.5C 42.4684,159.83 35.4684,159.497 28.5,158.5C 26.9685,154.905 27.3018,151.572 29.5,148.5 Z"/></g>
<g><path style="opacity:1" fill="#6dc72a" d="M 232.5,161.5 C 235.5,161.5 238.5,161.5 241.5,161.5C 241.667,182.169 241.5,202.836 241,223.5C 240.292,224.381 239.458,225.047 238.5,225.5C 235.5,225.5 232.5,225.5 229.5,225.5C 229.5,205.5 229.5,185.5 229.5,165.5C 231.912,165.306 232.912,163.973 232.5,161.5 Z"/></g>
<g><path style="opacity:1" fill="#5aa522" d="M 229.5,165.5 C 229.5,185.5 229.5,205.5 229.5,225.5C 232.5,225.5 235.5,225.5 238.5,225.5C 231.352,226.492 224.019,226.825 216.5,226.5C 216.5,206.167 216.5,185.833 216.5,165.5C 220.833,165.5 225.167,165.5 229.5,165.5 Z"/></g>
<g><path style="opacity:1" fill="#c3c2c7" d="M 29.5,202.5 C 26.8333,206.167 26.8333,209.833 29.5,213.5C 25.1539,213.666 20.8206,213.499 16.5,213C 12.5,209.667 12.5,206.333 16.5,203C 20.8206,202.501 25.1539,202.334 29.5,202.5 Z"/></g>
<g><path style="opacity:1" fill="#dedee0" d="M 29.5,202.5 C 36.8409,202.334 44.1742,202.5 51.5,203C 54.1667,206.333 54.1667,209.667 51.5,213C 44.1742,213.5 36.8409,213.666 29.5,213.5C 26.8333,209.833 26.8333,206.167 29.5,202.5 Z"/></g>
<g><path style="opacity:1" fill="#8a9cac" d="M 237.5,233.5 C 231.021,234.491 224.354,234.824 217.5,234.5C 217.813,238.042 217.479,241.375 216.5,244.5C 216.5,240.833 216.5,237.167 216.5,233.5C 223.5,233.5 230.5,233.5 237.5,233.5 Z"/></g>
<g><path style="opacity:1" fill="#bad5ec" d="M 216.5,244.5 C 217.479,241.375 217.813,238.042 217.5,234.5C 224.354,234.824 231.021,234.491 237.5,233.5C 238.822,233.67 239.989,233.337 241,232.5C 241.667,236.833 241.667,241.167 241,245.5C 240.5,246 240,246.5 239.5,247C 231.946,248.432 224.279,248.932 216.5,248.5C 216.5,247.167 216.5,245.833 216.5,244.5 Z"/></g>
</svg>
