<svg width="22" height="22" viewBox="0 0 22 22" fill="none" xmlns="http://www.w3.org/2000/svg">
<g clip-path="url(#clip0_1_111)">
<path d="M2.06237 10.9999C2.06226 9.79794 2.30461 8.60826 2.77493 7.5021C3.24524 6.39593 3.93385 5.396 4.79956 4.56212C5.66527 3.72825 6.69029 3.07756 7.8133 2.649C8.9363 2.22045 10.1342 2.02281 11.3354 2.06793C11.4707 2.0729 11.6057 2.05116 11.7326 2.00396C11.8596 1.95676 11.976 1.88501 12.0752 1.79283C12.1744 1.70064 12.2544 1.58982 12.3108 1.46669C12.3672 1.34355 12.3988 1.21052 12.4037 1.07519C12.4087 0.93985 12.387 0.804861 12.3398 0.677928C12.2926 0.550994 12.2208 0.4346 12.1286 0.335392C12.0364 0.236185 11.9256 0.156106 11.8025 0.0997273C11.6794 0.043349 11.5463 0.0117758 11.411 0.00681017C9.41177 -0.0674054 7.43015 0.405011 5.67944 1.37321C3.92872 2.34141 2.4752 3.76873 1.47532 5.50155C0.475435 7.23437 -0.0329438 9.20706 0.00489823 11.2073C0.0427402 13.2076 0.62537 15.1596 1.69008 16.8534C2.75479 18.5471 4.26125 19.9184 6.04734 20.8197C7.83342 21.721 9.83149 22.1181 11.8265 21.9684C13.8215 21.8186 15.7378 21.1276 17.3693 19.9697C19.0008 18.8118 20.2856 17.2309 21.0855 15.3972C21.1949 15.1465 21.2002 14.8626 21.1003 14.6079C21.0004 14.3533 20.8034 14.1488 20.5527 14.0394C20.302 13.93 20.0181 13.9246 19.7634 14.0246C19.5088 14.1245 19.3043 14.3215 19.1949 14.5722C19.1018 14.7835 19.0009 14.9913 18.8924 15.1951C17.9565 16.9564 16.4584 18.354 14.6364 19.1655C12.8145 19.9771 10.7735 20.1559 8.83821 19.6735C6.90293 19.1911 5.18461 18.0752 3.95675 16.5035C2.7289 14.9317 2.06206 12.9944 2.06237 10.9999ZM16.1424 1.27319C16.0226 1.20972 15.8916 1.17045 15.7567 1.15762C15.6218 1.1448 15.4857 1.15867 15.3562 1.19844C15.0946 1.27876 14.8756 1.45972 14.7474 1.7015C14.6192 1.94328 14.5924 2.22607 14.6727 2.48767C14.753 2.74927 14.934 2.96825 15.1757 3.09644C15.3737 3.20094 15.5662 3.31231 15.7546 3.43056C15.8693 3.50279 15.997 3.55172 16.1306 3.57457C16.2642 3.59742 16.401 3.59374 16.5331 3.56374C16.6652 3.53373 16.7902 3.47799 16.9008 3.3997C17.0114 3.32141 17.1055 3.2221 17.1777 3.10744C17.25 2.99277 17.2989 2.86501 17.3218 2.73144C17.3446 2.59787 17.3409 2.4611 17.3109 2.32895C17.2809 2.1968 17.2252 2.07186 17.1469 1.96125C17.0686 1.85064 16.9693 1.75654 16.8546 1.68431C16.622 1.5384 16.3853 1.40127 16.1424 1.27319ZM20.3141 5.14656C20.1684 4.91499 19.9367 4.75078 19.67 4.69006C19.4032 4.62933 19.1232 4.67706 18.8917 4.82275C18.6601 4.96843 18.4959 5.20014 18.4352 5.4669C18.3745 5.73366 18.4222 6.01362 18.5679 6.24518C18.6875 6.43356 18.7989 6.62606 18.9034 6.82269C19.0331 7.06105 19.2515 7.23869 19.5113 7.3171C19.7711 7.3955 20.0513 7.36834 20.2912 7.24152C20.5311 7.11469 20.7113 6.89841 20.7928 6.63958C20.8744 6.38075 20.8506 6.10022 20.7266 5.85881C20.598 5.61636 20.4604 5.37877 20.3141 5.14656ZM21.993 10.5874C21.9879 10.452 21.9563 10.3189 21.8998 10.1957C21.8433 10.0725 21.7631 9.96169 21.6637 9.86951C21.5644 9.77732 21.4479 9.70561 21.3208 9.65845C21.1938 9.6113 21.0587 9.58963 20.9232 9.59469C20.7878 9.59974 20.6547 9.63142 20.5315 9.68792C20.4083 9.74441 20.2975 9.82462 20.2053 9.92395C20.1131 10.0233 20.0414 10.1398 19.9943 10.2669C19.9471 10.3939 19.9254 10.529 19.9305 10.6644C19.9385 10.8706 19.9394 11.077 19.9332 11.2832C19.9247 11.5567 20.0251 11.8224 20.2124 12.0219C20.3998 12.2213 20.6587 12.3382 20.9322 12.3467C21.2057 12.3553 21.4714 12.2549 21.6708 12.0675C21.8703 11.8802 21.9872 11.6213 21.9957 11.3478C22.0034 11.0949 22.0025 10.8417 21.993 10.5888V10.5874Z" fill="black"/>
<path d="M16.1972 7.17751C16.3903 7.37087 16.4988 7.63298 16.4988 7.90626C16.4988 8.17954 16.3903 8.44165 16.1972 8.63501L10.0097 14.8225C9.81631 15.0156 9.5542 15.1241 9.28092 15.1241C9.00763 15.1241 8.74553 15.0156 8.55217 14.8225L5.80217 12.0725C5.62001 11.877 5.52084 11.6185 5.52555 11.3513C5.53027 11.0841 5.63849 10.8292 5.82744 10.6403C6.01638 10.4513 6.27128 10.3431 6.53845 10.3384C6.80561 10.3337 7.06418 10.4328 7.25967 10.615L9.28092 12.6363L14.7397 7.17751C14.933 6.98439 15.1951 6.87592 15.4684 6.87592C15.7417 6.87592 16.0038 6.98439 16.1972 7.17751Z" fill="black"/>
</g>
<defs>
<clipPath id="clip0_1_111">
<rect width="22" height="22" fill="white"/>
</clipPath>
</defs>
</svg>
