<?xml version="1.0" encoding="UTF-8"?>
<!DOCTYPE svg PUBLIC "-//W3C//DTD SVG 1.1//EN" "http://www.w3.org/Graphics/SVG/1.1/DTD/svg11.dtd">
<svg xmlns="http://www.w3.org/2000/svg" version="1.1" width="512px" height="512px" style="shape-rendering:geometricPrecision; text-rendering:geometricPrecision; image-rendering:optimizeQuality; fill-rule:evenodd; clip-rule:evenodd" xmlns:xlink="http://www.w3.org/1999/xlink">
<g><path style="opacity:0.964" fill="#010100" d="M 392.5,7.5 C 407.833,7.5 423.167,7.5 438.5,7.5C 440.167,13.5 441.833,19.5 443.5,25.5C 449.369,23.5677 455.036,21.0677 460.5,18C 461.5,17.3333 462.5,17.3333 463.5,18C 473.333,27.8333 483.167,37.6667 493,47.5C 493.667,48.5 493.667,49.5 493,50.5C 489.932,55.964 487.432,61.6307 485.5,67.5C 491.5,69.1667 497.5,70.8333 503.5,72.5C 503.5,87.8333 503.5,103.167 503.5,118.5C 497.5,120.167 491.5,121.833 485.5,123.5C 487.432,129.369 489.932,135.036 493,140.5C 493.667,141.5 493.667,142.5 493,143.5C 483.167,153.333 473.333,163.167 463.5,173C 462.5,173.667 461.5,173.667 460.5,173C 455.036,169.932 449.369,167.432 443.5,165.5C 441.833,171.5 440.167,177.5 438.5,183.5C 423.167,183.5 407.833,183.5 392.5,183.5C 390.833,177.5 389.167,171.5 387.5,165.5C 381.631,167.432 375.964,169.932 370.5,173C 369.5,173.667 368.5,173.667 367.5,173C 357.667,163.167 347.833,153.333 338,143.5C 337.333,142.5 337.333,141.5 338,140.5C 341.068,135.036 343.568,129.369 345.5,123.5C 339.5,121.833 333.5,120.167 327.5,118.5C 327.5,103.167 327.5,87.8333 327.5,72.5C 333.5,70.8333 339.5,69.1667 345.5,67.5C 343.568,61.6307 341.068,55.964 338,50.5C 337.333,49.5 337.333,48.5 338,47.5C 347.833,37.6667 357.667,27.8333 367.5,18C 368.5,17.3333 369.5,17.3333 370.5,18C 375.964,21.0677 381.631,23.5677 387.5,25.5C 389.167,19.5 390.833,13.5 392.5,7.5 Z M 408.5,72.5 C 422.981,70.3182 432.814,75.9849 438,89.5C 440.366,103.606 434.866,113.106 421.5,118C 407.394,120.366 397.894,114.866 393,101.5C 390.831,87.8339 395.998,78.1672 408.5,72.5 Z"/></g>
<g><path style="opacity:1" fill="#f9d46e" d="M 404.5,23.5 C 411.833,23.5 419.167,23.5 426.5,23.5C 427.999,29.8306 429.999,35.9972 432.5,42C 435.466,43.2663 438.466,44.4329 441.5,45.5C 447.282,43.1092 452.949,40.4425 458.5,37.5C 463.485,41.9848 468.319,46.6515 473,51.5C 471.28,56.9554 468.947,62.2888 466,67.5C 466.111,71.5807 467.277,75.414 469.5,79C 475.35,81.1716 481.183,83.3383 487,85.5C 487.667,92.1667 487.667,98.8333 487,105.5C 481.183,107.662 475.35,109.828 469.5,112C 467.277,115.586 466.111,119.419 466,123.5C 468.947,128.711 471.28,134.045 473,139.5C 468.319,144.349 463.485,149.015 458.5,153.5C 452.949,150.557 447.282,147.891 441.5,145.5C 438.466,146.567 435.466,147.734 432.5,149C 429.971,154.921 427.637,160.921 425.5,167C 418.833,167.667 412.167,167.667 405.5,167C 403.338,161.183 401.172,155.35 399,149.5C 395.414,147.277 391.581,146.111 387.5,146C 382.289,148.947 376.955,151.28 371.5,153C 366.651,148.319 361.985,143.485 357.5,138.5C 360.443,132.949 363.109,127.282 365.5,121.5C 364.433,118.466 363.266,115.466 362,112.5C 355.997,109.999 349.831,107.999 343.5,106.5C 343.5,99.1667 343.5,91.8333 343.5,84.5C 349.831,83.0009 355.997,81.0009 362,78.5C 363.17,75.495 364.336,72.495 365.5,69.5C 362.662,63.5086 360.162,57.5086 358,51.5C 362.681,46.6515 367.515,41.9848 372.5,37.5C 378.051,40.4425 383.718,43.1092 389.5,45.5C 392.495,44.3364 395.495,43.1697 398.5,42C 401.001,35.9972 403.001,29.8306 404.5,23.5 Z M 408.5,72.5 C 395.998,78.1672 390.831,87.8339 393,101.5C 397.894,114.866 407.394,120.366 421.5,118C 434.866,113.106 440.366,103.606 438,89.5C 432.814,75.9849 422.981,70.3182 408.5,72.5 Z"/></g>
<g><path style="opacity:0.966" fill="#030201" d="M 407.5,55.5 C 438.569,54.7408 454.402,69.7408 455,100.5C 449.138,125.53 433.305,137.03 407.5,135C 384.244,127.726 373.744,111.893 376,87.5C 380.683,70.9848 391.183,60.3181 407.5,55.5 Z M 408.5,72.5 C 395.998,78.1672 390.831,87.8339 393,101.5C 397.894,114.866 407.394,120.366 421.5,118C 434.866,113.106 440.366,103.606 438,89.5C 432.814,75.9849 422.981,70.3182 408.5,72.5 Z"/></g>
<g><path style="opacity:0.984" fill="#000000" d="M 263.5,79.5 C 210.499,79.3333 157.499,79.5 104.5,80C 91.6667,83.5 83.5,91.6667 80,104.5C 79.5,138.832 79.3333,173.165 79.5,207.5C 69.4944,207.334 59.4944,207.5 49.5,208C 48.1955,208.804 47.5288,209.971 47.5,211.5C 61.0699,232.965 74.9032,254.298 89,275.5C 93.2514,280.726 97.5847,280.726 102,275.5C 116.097,254.298 129.93,232.965 143.5,211.5C 143.471,209.971 142.804,208.804 141.5,208C 131.506,207.5 121.506,207.334 111.5,207.5C 111.333,179.165 111.5,150.831 112,122.5C 113.779,118.388 116.612,115.222 120.5,113C 168.082,111.51 215.749,111.01 263.5,111.5C 263.5,116.833 263.5,122.167 263.5,127.5C 218.167,127.5 172.833,127.5 127.5,127.5C 127.5,148.833 127.5,170.167 127.5,191.5C 133.509,191.334 139.509,191.501 145.5,192C 157.5,196.83 162,205.664 159,218.5C 144.249,241.671 129.249,264.671 114,287.5C 105.947,295.506 96.4471,297.673 85.5,294C 82.2167,292.439 79.3834,290.273 77,287.5C 61.7511,264.671 46.7511,241.671 32,218.5C 29.0001,205.664 33.5001,196.83 45.5,192C 51.4908,191.501 57.4908,191.334 63.5,191.5C 63.3334,161.498 63.5,131.498 64,101.5C 69.1667,81.6667 81.6667,69.1667 101.5,64C 155.499,63.5 209.499,63.3333 263.5,63.5C 263.5,68.8333 263.5,74.1667 263.5,79.5 Z"/></g>
<g><path style="opacity:1" fill="#000000" d="M 279.5,63.5 C 284.833,63.5 290.167,63.5 295.5,63.5C 295.5,68.8333 295.5,74.1667 295.5,79.5C 290.167,79.5 284.833,79.5 279.5,79.5C 279.5,74.1667 279.5,68.8333 279.5,63.5 Z"/></g>
<g><path style="opacity:1" fill="#fe816d" d="M 263.5,79.5 C 263.5,90.1667 263.5,100.833 263.5,111.5C 215.749,111.01 168.082,111.51 120.5,113C 116.612,115.222 113.779,118.388 112,122.5C 111.5,150.831 111.333,179.165 111.5,207.5C 121.506,207.334 131.506,207.5 141.5,208C 142.804,208.804 143.471,209.971 143.5,211.5C 129.93,232.965 116.097,254.298 102,275.5C 97.5847,280.726 93.2514,280.726 89,275.5C 74.9032,254.298 61.0699,232.965 47.5,211.5C 47.5288,209.971 48.1955,208.804 49.5,208C 59.4944,207.5 69.4944,207.334 79.5,207.5C 79.3333,173.165 79.5,138.832 80,104.5C 83.5,91.6667 91.6667,83.5 104.5,80C 157.499,79.5 210.499,79.3333 263.5,79.5 Z"/></g>
<g><path style="opacity:0.975" fill="#010101" d="M 243.5,159.5 C 280.533,156.258 307.033,171.258 323,204.5C 332.063,230.836 328.397,255.169 312,277.5C 305.152,284.886 297.819,291.553 290,297.5C 288.908,300.044 288.241,302.711 288,305.5C 293.695,343.138 277.862,358.305 240.5,351C 232.333,348.167 226.833,342.667 224,334.5C 223.667,324.833 223.333,315.167 223,305.5C 222.669,301.169 221.169,297.336 218.5,294C 186.439,271.821 176.273,241.988 188,204.5C 198.813,179.864 217.313,164.864 243.5,159.5 Z"/></g>
<g><path style="opacity:1" fill="#fce8a5" d="M 246.5,175.5 C 280.901,173.764 302.401,189.43 311,222.5C 312.987,240.2 308.321,255.867 297,269.5C 290.667,274.833 284.333,280.167 278,285.5C 274.148,290.891 271.981,296.891 271.5,303.5C 268.833,303.5 266.167,303.5 263.5,303.5C 263.167,286.82 263.501,270.153 264.5,253.5C 278.187,246.124 282.354,235.124 277,220.5C 267.597,207.19 255.764,204.357 241.5,212C 228.285,224.909 228.285,237.909 241.5,251C 243.167,251.833 244.833,252.667 246.5,253.5C 247.499,270.153 247.833,286.82 247.5,303.5C 244.833,303.5 242.167,303.5 239.5,303.5C 239.019,296.891 236.852,290.891 233,285.5C 228.123,280.954 222.956,276.787 217.5,273C 200.63,255.354 195.797,234.854 203,211.5C 211.645,192.349 226.145,180.349 246.5,175.5 Z"/></g>
<g><path style="opacity:0.984" fill="#000000" d="M 247.5,431.5 C 300.501,431.667 353.501,431.5 406.5,431C 419.333,427.5 427.5,419.333 431,406.5C 431.5,372.168 431.667,337.835 431.5,303.5C 441.506,303.666 451.506,303.5 461.5,303C 462.804,302.196 463.471,301.029 463.5,299.5C 449.93,278.035 436.097,256.702 422,235.5C 417.585,230.274 413.251,230.274 409,235.5C 394.903,256.702 381.07,278.035 367.5,299.5C 367.529,301.029 368.196,302.196 369.5,303C 379.494,303.5 389.494,303.666 399.5,303.5C 399.667,331.502 399.5,359.502 399,387.5C 397.65,392.185 394.817,395.685 390.5,398C 342.893,399.485 295.227,399.985 247.5,399.5C 247.5,394.167 247.5,388.833 247.5,383.5C 292.833,383.5 338.167,383.5 383.5,383.5C 383.5,362.167 383.5,340.833 383.5,319.5C 377.491,319.666 371.491,319.499 365.5,319C 353.5,314.17 349,305.336 352,292.5C 366.751,269.329 381.751,246.329 397,223.5C 405.053,215.494 414.553,213.327 425.5,217C 428.783,218.561 431.617,220.727 434,223.5C 449.249,246.329 464.249,269.329 479,292.5C 482,305.336 477.5,314.17 465.5,319C 459.509,319.499 453.509,319.666 447.5,319.5C 447.667,349.502 447.5,379.502 447,409.5C 441.833,429.333 429.333,441.833 409.5,447C 355.501,447.5 301.501,447.667 247.5,447.5C 247.5,442.167 247.5,436.833 247.5,431.5 Z"/></g>
<g><path style="opacity:1" fill="#f1ce6b" d="M 252.5,223.5 C 260.658,222.823 264.158,226.49 263,234.5C 260.774,238.861 257.274,240.361 252.5,239C 248.139,236.774 246.639,233.274 248,228.5C 249.025,226.313 250.525,224.646 252.5,223.5 Z"/></g>
<g><path style="opacity:1" fill="#fe816d" d="M 247.5,431.5 C 247.5,420.833 247.5,410.167 247.5,399.5C 295.227,399.985 342.893,399.485 390.5,398C 394.817,395.685 397.65,392.185 399,387.5C 399.5,359.502 399.667,331.502 399.5,303.5C 389.494,303.666 379.494,303.5 369.5,303C 368.196,302.196 367.529,301.029 367.5,299.5C 381.07,278.035 394.903,256.702 409,235.5C 413.251,230.274 417.585,230.274 422,235.5C 436.097,256.702 449.93,278.035 463.5,299.5C 463.471,301.029 462.804,302.196 461.5,303C 451.506,303.5 441.506,303.666 431.5,303.5C 431.667,337.835 431.5,372.168 431,406.5C 427.5,419.333 419.333,427.5 406.5,431C 353.501,431.5 300.501,431.667 247.5,431.5 Z"/></g>
<g><path style="opacity:1" fill="#a8b0bb" d="M 239.5,319.5 C 250.167,319.5 260.833,319.5 271.5,319.5C 273.837,332.496 268.504,337.83 255.5,335.5C 242.496,337.83 237.163,332.496 239.5,319.5 Z"/></g>
<g><path style="opacity:0.964" fill="#010100" d="M 72.5,327.5 C 87.8333,327.5 103.167,327.5 118.5,327.5C 120.167,333.5 121.833,339.5 123.5,345.5C 129.369,343.568 135.036,341.068 140.5,338C 141.5,337.333 142.5,337.333 143.5,338C 153.333,347.833 163.167,357.667 173,367.5C 173.667,368.5 173.667,369.5 173,370.5C 169.932,375.964 167.432,381.631 165.5,387.5C 171.5,389.167 177.5,390.833 183.5,392.5C 183.5,407.833 183.5,423.167 183.5,438.5C 177.5,440.167 171.5,441.833 165.5,443.5C 167.432,449.369 169.932,455.036 173,460.5C 173.667,461.5 173.667,462.5 173,463.5C 163.167,473.333 153.333,483.167 143.5,493C 142.5,493.667 141.5,493.667 140.5,493C 135.036,489.932 129.369,487.432 123.5,485.5C 121.833,491.5 120.167,497.5 118.5,503.5C 103.167,503.5 87.8333,503.5 72.5,503.5C 70.8333,497.5 69.1667,491.5 67.5,485.5C 61.6307,487.432 55.964,489.932 50.5,493C 49.5,493.667 48.5,493.667 47.5,493C 37.6667,483.167 27.8333,473.333 18,463.5C 17.3333,462.5 17.3333,461.5 18,460.5C 21.0677,455.036 23.5677,449.369 25.5,443.5C 19.5,441.833 13.5,440.167 7.5,438.5C 7.5,423.167 7.5,407.833 7.5,392.5C 13.5,390.833 19.5,389.167 25.5,387.5C 23.5677,381.631 21.0677,375.964 18,370.5C 17.3333,369.5 17.3333,368.5 18,367.5C 27.8333,357.667 37.6667,347.833 47.5,338C 48.5,337.333 49.5,337.333 50.5,338C 55.964,341.068 61.6307,343.568 67.5,345.5C 69.1667,339.5 70.8333,333.5 72.5,327.5 Z M 88.5,392.5 C 102.981,390.318 112.814,395.985 118,409.5C 120.366,423.606 114.866,433.106 101.5,438C 87.3943,440.366 77.8943,434.866 73,421.5C 70.8314,407.834 75.998,398.167 88.5,392.5 Z"/></g>
<g><path style="opacity:1" fill="#f9d46e" d="M 84.5,343.5 C 91.8333,343.5 99.1667,343.5 106.5,343.5C 107.999,349.831 109.999,355.997 112.5,362C 115.466,363.266 118.466,364.433 121.5,365.5C 127.282,363.109 132.949,360.443 138.5,357.5C 143.485,361.985 148.319,366.651 153,371.5C 151.28,376.955 148.947,382.289 146,387.5C 146.111,391.581 147.277,395.414 149.5,399C 155.35,401.172 161.183,403.338 167,405.5C 167.667,412.167 167.667,418.833 167,425.5C 161.183,427.662 155.35,429.828 149.5,432C 147.277,435.586 146.111,439.419 146,443.5C 148.947,448.711 151.28,454.045 153,459.5C 148.319,464.349 143.485,469.015 138.5,473.5C 132.949,470.557 127.282,467.891 121.5,465.5C 118.466,466.567 115.466,467.734 112.5,469C 109.971,474.921 107.637,480.921 105.5,487C 98.8333,487.667 92.1667,487.667 85.5,487C 83.3383,481.183 81.1716,475.35 79,469.5C 75.414,467.277 71.5807,466.111 67.5,466C 62.2888,468.947 56.9554,471.28 51.5,473C 46.6515,468.319 41.9848,463.485 37.5,458.5C 40.4425,452.949 43.1092,447.282 45.5,441.5C 44.4329,438.466 43.2663,435.466 42,432.5C 35.9972,429.999 29.8306,427.999 23.5,426.5C 23.5,419.167 23.5,411.833 23.5,404.5C 29.8306,403.001 35.9972,401.001 42,398.5C 43.1697,395.495 44.3364,392.495 45.5,389.5C 42.6616,383.509 40.1616,377.509 38,371.5C 42.6814,366.651 47.5148,361.985 52.5,357.5C 58.051,360.443 63.7177,363.109 69.5,365.5C 72.495,364.336 75.495,363.17 78.5,362C 81.0009,355.997 83.0009,349.831 84.5,343.5 Z M 88.5,392.5 C 75.998,398.167 70.8314,407.834 73,421.5C 77.8943,434.866 87.3943,440.366 101.5,438C 114.866,433.106 120.366,423.606 118,409.5C 112.814,395.985 102.981,390.318 88.5,392.5 Z"/></g>
<g><path style="opacity:0.966" fill="#030201" d="M 87.5,375.5 C 118.569,374.741 134.402,389.741 135,420.5C 129.138,445.53 113.305,457.03 87.5,455C 64.244,447.726 53.744,431.893 56,407.5C 60.6827,390.985 71.1827,380.318 87.5,375.5 Z M 88.5,392.5 C 75.998,398.167 70.8314,407.834 73,421.5C 77.8943,434.866 87.3943,440.366 101.5,438C 114.866,433.106 120.366,423.606 118,409.5C 112.814,395.985 102.981,390.318 88.5,392.5 Z"/></g>
<g><path style="opacity:1" fill="#000000" d="M 215.5,431.5 C 220.833,431.5 226.167,431.5 231.5,431.5C 231.5,436.833 231.5,442.167 231.5,447.5C 226.167,447.5 220.833,447.5 215.5,447.5C 215.5,442.167 215.5,436.833 215.5,431.5 Z"/></g>
</svg>
