<svg width="497" height="276" viewBox="0 0 497 276" fill="none" xmlns="http://www.w3.org/2000/svg">
<path d="M188.292 1.116C187.676 1.36798 185.464 1.42398 179.416 1.284C174.992 1.19998 170.764 1.116 169.98 1.116C168.468 1.08798 165.164 1.59198 163.792 2.09598C163.12 2.31998 162.784 2.29199 162.056 1.92798C160.796 1.284 160.096 1.36798 159.172 2.34799L158.388 3.18799L157.548 2.57199C156.792 2.03998 156.568 1.98398 155.644 2.23599C155.056 2.40399 152.732 2.54401 150.492 2.57199C146.516 2.60001 146.32 2.62799 143.212 3.69199C140.552 4.58798 139.628 4.784 137.696 4.784C136.044 4.784 135.176 4.92398 134.672 5.25998C134.308 5.51199 133.888 5.65198 133.776 5.56799C133.44 5.37198 130.808 5.81998 127.84 6.63199C121.344 8.36798 120.336 8.67599 119.552 9.29199C119.048 9.68399 118.712 9.79599 118.656 9.60001C118.544 9.29199 116.92 10.916 116.92 11.336C116.92 11.756 117.816 11.924 118.348 11.616C118.628 11.42 119.216 11.28 119.664 11.28C120.084 11.28 120.588 11.14 120.756 10.972C120.952 10.776 121.288 10.972 121.904 11.7C122.884 12.932 124.172 13.268 126.776 13.016C128.204 12.904 128.54 12.764 129.044 12.092C129.772 11.084 131.116 10.972 131.928 11.868C132.348 12.344 132.656 12.428 133.58 12.288C134.868 12.092 134.952 12.092 138.284 12.176C140.552 12.26 140.804 12.204 141.224 11.644C141.476 11.308 142.036 10.916 142.456 10.748C143.1 10.496 143.324 10.58 144.108 11.308C145.48 12.568 145.928 12.736 147.608 12.512C148.784 12.372 149.288 12.428 149.848 12.82C150.52 13.268 150.576 13.408 150.408 14.612C150.296 15.312 150.212 16.18 150.212 16.488C150.24 17.384 149.512 17.888 148.924 17.412C148.672 17.188 147.86 17.02 147.104 17.02C146.04 17.02 145.76 17.104 145.76 17.468C145.76 18.168 144.976 18.364 144.78 17.692C144.612 17.216 143.912 16.992 143.1 17.16C142.96 17.188 142.064 17.272 141.14 17.328C140.216 17.384 138.9 17.552 138.2 17.692C131.06 19.12 128.064 19.372 120.56 19.26C114.792 19.148 109.584 18.812 103.9 18.14C102.22 17.944 99.364 17.776 97.6 17.776C94.38 17.748 91.496 18.056 92.28 18.336C94.8 19.232 97.768 19.596 98.972 19.176C100.064 18.784 102.08 19.932 102.08 20.968C102.08 21.332 101.912 21.668 101.744 21.668C101.548 21.696 101.268 21.724 101.1 21.78C100.96 21.808 100.68 21.864 100.484 21.864C99.952 21.948 99.252 23.6 99 25.392C98.86 26.288 98.636 27.156 98.496 27.296C98.16 27.632 91.16 27.128 90.404 26.736C90.124 26.568 88.136 26.288 85.98 26.12C83.824 25.952 81.5 25.672 80.828 25.532C80.128 25.364 78.812 25.252 77.888 25.28C76.936 25.28 74.416 25.028 72.26 24.72C70.104 24.384 67.584 24.02 66.66 23.88C65.736 23.74 64.616 23.488 64.168 23.32C63.72 23.152 62.768 22.956 62.068 22.9C61.368 22.844 60.108 22.648 59.324 22.508C58.512 22.34 56.496 22.228 54.844 22.228C53.164 22.228 51.232 22.116 50.504 21.948C48.628 21.528 43.056 21.752 42.076 22.284C41.32 22.676 41.152 22.648 39.864 22.116L38.464 21.528L37.288 22.144C35.944 22.872 35.552 22.9 35.356 22.368C35.132 21.808 33.116 21.64 31.548 22.06C30.372 22.368 29.924 22.34 28.608 21.976C27.18 21.584 26.956 21.584 26.004 22.004C25.164 22.368 23.624 22.508 19.06 22.62C12.648 22.788 11.08 22.984 10.24 23.74C9.932 24.02 9.12 24.272 8.364 24.328C7.244 24.412 6.852 24.608 5.956 25.56L4.864 26.68L6.628 26.736C7.608 26.764 8.868 26.764 9.4 26.736C10.996 26.624 12.76 26.96 13.292 27.492C13.936 28.136 15.364 28.64 16.512 28.64C16.988 28.64 17.744 28.836 18.192 29.06C18.612 29.284 19.396 29.48 19.928 29.48C20.656 29.48 20.824 29.564 20.712 29.9C20.6 30.124 20.236 30.404 19.9 30.488C18.892 30.74 19.34 31.44 20.488 31.44C21.608 31.44 21.636 31.524 20.88 32.28C20.516 32.644 19.984 32.84 19.396 32.812C18.892 32.784 18.136 32.98 17.66 33.232C17.212 33.484 16.26 33.68 15.56 33.68C14.272 33.708 11.836 34.212 10.408 34.772C9.848 34.996 9.316 34.996 8.588 34.8C8.028 34.66 6.908 34.52 6.096 34.52C4.416 34.52 4.024 34.94 4.752 36.06C5.088 36.592 5.452 36.76 6.18 36.76C7.888 36.76 7.636 37.628 5.816 37.964C5.312 38.076 4.612 38.44 4.276 38.804C3.94 39.168 3.38 39.616 3.044 39.812C2.316 40.176 2.204 40.68 2.82 40.68C3.772 40.68 5.508 41.408 5.648 41.856C5.844 42.556 5.564 42.892 4.948 42.724C4.584 42.64 4.304 42.78 4.108 43.144C3.94 43.452 3.436 43.788 2.96 43.9C2.316 44.04 2.12 44.236 2.12 44.74C2.12 45.496 2.792 45.804 3.968 45.608C4.5 45.496 4.948 45.636 5.34 45.972C6.012 46.616 8.336 46.98 9.064 46.588C9.372 46.42 9.708 46.392 9.82 46.504C9.932 46.616 10.408 46.7 10.884 46.7C11.696 46.7 11.78 46.784 11.864 47.596C11.976 48.744 11.22 49.92 10.352 49.92C9.988 49.92 9.372 49.584 8.98 49.164C8.42 48.548 8.28 48.492 8.28 48.856C8.28 49.136 7.86 49.556 7.356 49.808C6.88 50.06 6.208 50.48 5.9 50.76C5.592 51.012 4.584 51.516 3.66 51.88C0.971996 52.916 -0.204004 54.344 0.859996 55.24C1.224 55.548 1.476 55.52 2.344 55.1C2.904 54.82 3.772 54.54 4.22 54.484C4.696 54.456 5.536 54.344 6.096 54.288C6.824 54.204 7.244 54.316 7.58 54.68C7.972 55.1 8.42 55.156 10.744 55.072C12.228 55.044 13.908 54.904 14.496 54.82C15.364 54.652 15.56 54.708 15.84 55.24C16.372 56.22 17.296 57.2 17.576 57.032C17.716 56.948 18.024 57.032 18.248 57.228C18.612 57.508 18.612 57.648 18.192 58.236C17.968 58.628 17.828 58.992 17.912 59.076C18.276 59.468 16.568 60 15.532 59.832C14.72 59.692 14.3 59.776 13.908 60.112C13.572 60.42 13.152 60.504 12.592 60.392C11.78 60.224 11.136 60.42 7.664 61.82C5.508 62.66 4.276 63.668 4.528 64.34C4.64 64.592 4.892 64.732 5.144 64.62C5.368 64.536 5.788 64.676 6.068 64.928C6.516 65.32 6.964 65.376 8.896 65.208C13.936 64.788 14.216 64.788 14.888 65.236C15.504 65.628 15.868 66.972 15.364 67.028C12.76 67.224 11.472 67.504 11.08 67.98C10.856 68.26 10.548 68.288 9.932 68.12C9.288 67.924 8.868 68.008 8.196 68.4C7.692 68.708 7.048 68.96 6.768 68.96C6.404 68.96 6.292 69.044 6.488 69.24C6.628 69.38 7.692 69.576 8.84 69.688C9.988 69.8 11.108 69.996 11.304 70.164C11.808 70.556 14.776 70.668 15.196 70.304C15.448 70.108 15.924 70.36 16.848 71.172C18.22 72.376 18.948 72.544 20.18 71.984C20.768 71.732 21.048 71.732 21.524 72.04C21.944 72.292 23.12 72.432 25.22 72.46C28.692 72.488 28.552 72.432 33.032 75.568C35.048 76.996 35.384 77.108 36.336 76.968C36.924 76.856 37.4 76.912 37.4 77.052C37.4 77.584 37.036 78.2 36.728 78.2C36.308 78.2 34.6 79.824 34.6 80.244C34.6 80.44 34.992 80.804 35.44 81.056C36.784 81.84 36.42 83.716 34.992 83.352C34.572 83.24 34.04 83.52 33.228 84.276C32.556 84.864 31.464 85.508 30.792 85.704C29.308 86.124 28.776 87.02 28.496 89.484L28.3 91.22L26.9 91.864C26.144 92.256 24.8 92.648 23.96 92.76C20.348 93.32 17.688 93.88 17.436 94.132C17.268 94.3 16.904 94.44 16.652 94.44C15.98 94.44 13.824 97.212 13.936 97.912C13.992 98.36 14.272 98.528 15 98.64C15.812 98.752 16.008 98.92 16.064 99.508C16.12 99.928 16.372 100.46 16.652 100.712C17.296 101.3 19.62 102 20.04 101.72C20.404 101.496 21.664 101.692 21.86 102C22.196 102.56 21.608 103.12 20.684 103.12C20.04 103.12 19.424 103.372 18.892 103.82C18.444 104.184 17.604 104.576 17.016 104.66C14.188 105.08 14.02 105.164 14.076 106.06C14.132 106.536 14.048 107.236 13.908 107.656C13.684 108.3 13.74 108.412 14.328 108.552C14.692 108.664 15 108.916 15 109.14C15 109.364 15.168 109.532 15.364 109.504C15.56 109.448 15.672 109.672 15.644 110.036C15.588 110.428 15.756 110.708 16.12 110.82C16.848 111.044 17.632 112.22 17.436 112.752C17.352 112.948 16.792 113.256 16.204 113.396C14.552 113.788 14.692 114.404 16.736 115.524C18.304 116.392 18.668 116.504 19.956 116.364C21.244 116.224 21.468 116.28 22.112 116.924L22.84 117.652L22.196 118.716C21.86 119.304 21.468 120.144 21.3 120.62C21.048 121.348 20.852 121.488 19.536 121.684C18.36 121.88 17.968 122.076 17.744 122.608C17.576 122.972 17.212 123.336 16.904 123.42C16.624 123.532 16.26 123.84 16.092 124.148C15.476 125.324 16.596 126.584 17.884 126.108C18.276 125.94 18.696 125.94 18.948 126.108C19.172 126.248 19.648 126.304 20.04 126.22C20.432 126.136 21.132 126.276 21.58 126.528C22.056 126.78 22.952 127.032 23.624 127.088C25.388 127.256 27.012 128.012 27.208 128.712C27.376 129.468 26.872 130.924 26.48 130.7C26.34 130.616 26.032 130.616 25.864 130.756C25.668 130.868 24.828 131.008 24.016 131.036C23.092 131.064 22.168 131.316 21.608 131.68C20.992 132.044 20.208 132.24 19.284 132.24C17.436 132.24 14.524 133.248 14.3 133.948C14.076 134.592 15.112 135.572 15.98 135.6C17.296 135.628 17.38 136.048 16.288 137.364C15.252 138.624 15 139.604 15.644 139.912C15.812 139.996 16.372 140.332 16.82 140.64C18.052 141.452 19.368 142.04 20.012 142.04C20.32 142.04 20.908 142.18 21.356 142.348C21.776 142.544 23.204 142.852 24.52 143.02C25.864 143.216 27.824 143.776 29 144.252C30.876 145.064 31.38 145.148 33.816 145.148C35.3 145.148 37.12 145.316 37.876 145.512C38.604 145.736 39.78 145.988 40.452 146.072C41.124 146.184 42.02 146.436 42.468 146.66C43.056 146.968 43.728 147.052 45.016 146.912C45.996 146.828 47.536 146.744 48.46 146.772C49.384 146.772 50.868 146.772 51.764 146.8C53.556 146.828 53.948 147.164 53.416 148.312C53.052 149.124 50.756 150.44 49.692 150.44C49.16 150.44 48.74 150.664 48.432 151.14C48.012 151.784 48.012 151.896 48.404 152.344C49.608 153.688 48.992 155.704 47.06 156.74C46.108 157.272 45.352 158.42 43.616 162.004C42.86 163.572 42.916 163.88 44.008 164.44C44.456 164.664 45.016 164.972 45.24 165.168C45.772 165.588 48.068 166.036 50.952 166.288C53.024 166.456 53.248 166.54 54.228 167.492C55.208 168.416 55.432 169.032 55.348 170.348C55.32 170.88 53.836 171.16 51.204 171.132C50.392 171.132 49.72 171.244 49.72 171.384C49.72 171.524 50.028 172.336 50.42 173.176C51.036 174.492 51.148 175.248 51.26 178.412C51.344 180.904 51.54 182.388 51.82 182.92C52.044 183.368 52.24 184.264 52.24 184.88C52.24 185.832 52.072 186.224 51.4 186.84C50.952 187.26 50.56 187.708 50.56 187.82C50.56 187.904 50.98 188.408 51.512 188.884C52.716 190.032 53.36 192.132 53.36 194.848C53.36 197.34 51.988 201.372 51.064 201.624C50.588 201.736 50.532 201.932 50.644 202.912C50.756 203.612 51.036 204.256 51.4 204.536C51.932 204.956 51.96 205.068 51.568 205.18C51.316 205.264 50.924 205.376 50.672 205.46C50.336 205.572 50.28 205.796 50.448 206.496C50.56 207 50.672 207.784 50.7 208.26C50.728 209.268 51.344 211.144 51.848 211.9C52.352 212.6 52.352 214.532 51.904 214.672C51.708 214.756 51.204 214.868 50.784 214.952C48.768 215.4 49.412 217.164 52.66 220.02C53.724 220.944 54.816 221.924 55.096 222.204C55.376 222.456 56.3 222.876 57.14 223.1C58.008 223.324 58.792 223.576 58.96 223.66C59.1 223.744 59.688 223.828 60.276 223.856C60.892 223.856 61.984 224.22 62.88 224.724C64.308 225.536 64.616 225.592 67.892 225.704C70.328 225.76 71.84 225.956 72.932 226.32C75.06 227.02 76.292 227.272 77.44 227.188C78.728 227.104 79.68 227.468 80.912 228.588L81.948 229.484L84.524 229.232C85.924 229.12 87.604 229.008 88.22 228.98C88.836 228.98 89.508 228.868 89.704 228.728C90.432 228.28 92.028 228.868 93.148 229.988L94.268 231.108L95.472 230.688C97.04 230.156 100.092 230.044 100.932 230.52C101.296 230.716 101.996 230.8 102.5 230.716C103.284 230.576 103.564 230.716 104.152 231.388C104.684 231.976 105.132 232.2 105.832 232.2C106.336 232.2 106.924 232.396 107.12 232.62C107.316 232.844 107.792 233.04 108.184 233.04C108.576 233.04 109.108 233.236 109.388 233.488C109.864 233.908 109.948 233.908 110.648 233.348C111.516 232.648 112.244 232.592 112.72 233.18C113.196 233.768 113.728 233.712 114.68 232.984C115.408 232.452 115.604 232.424 116.164 232.732C116.528 232.928 117.172 233.768 117.62 234.608C118.74 236.764 119.16 237.044 121.428 237.268C122.856 237.38 123.472 237.576 123.752 237.968C124.172 238.528 126.524 238.948 129.8 239.004C131.06 239.06 131.984 239.256 132.74 239.648C133.356 239.984 134.364 240.404 134.98 240.6C135.596 240.796 136.436 241.188 136.856 241.468C137.248 241.776 137.864 242 138.2 242C139.292 242 141.448 243.12 141.924 243.932C142.204 244.38 142.904 244.94 143.548 245.192C144.724 245.668 145.732 246.62 145.76 247.236C145.76 247.432 145.928 247.6 146.152 247.6C147.048 247.6 147.972 248.72 148.056 249.924C148.14 250.96 148.252 251.156 149.12 251.576C149.652 251.856 150.828 252.724 151.724 253.508L153.348 254.936L156.596 255.048C158.388 255.132 159.928 255.244 160.04 255.3C160.404 255.524 166.984 253.872 168.048 253.284C168.356 253.088 168.86 252.948 169.168 252.92C173.004 252.78 174.768 252.528 175.076 252.108C175.356 251.716 175.552 251.8 176.728 252.976C178.128 254.404 178.492 254.488 180.34 254.012C182.328 253.48 184.204 253.816 184.764 254.768C185.128 255.384 187.004 255.272 187.424 254.6C187.788 253.984 188.488 253.844 188.656 254.376C188.712 254.544 189.384 254.712 190.168 254.74C191.232 254.768 191.568 254.88 191.624 255.272C191.708 255.608 191.876 255.692 192.184 255.58C193.304 255.104 193.696 255.132 194.62 255.692C195.18 256 195.88 256.28 196.188 256.28C196.916 256.28 198.12 257.092 198.12 257.568C198.12 257.876 198.68 257.96 200.724 257.96C202.124 257.96 203.72 257.848 204.252 257.68C204.952 257.484 205.484 257.54 206.548 257.932C207.304 258.24 207.92 258.408 207.92 258.324C207.92 258.268 208.34 258.492 208.844 258.856C209.32 259.22 209.992 259.528 210.3 259.556C210.608 259.584 211.756 259.78 212.848 260.004C213.912 260.256 215.2 260.396 215.704 260.368C216.18 260.34 216.628 260.452 216.712 260.62C216.768 260.788 217.356 260.956 218.028 260.984C218.7 261.04 219.848 261.236 220.576 261.488C221.752 261.88 222.004 261.852 223.292 261.432L224.72 260.984L225.784 261.712C226.456 262.16 227.24 262.44 227.856 262.44C228.388 262.44 229.312 262.636 229.844 262.86C230.404 263.084 231.16 263.28 231.524 263.28C231.916 263.28 232.364 263.476 232.56 263.7C232.756 263.952 233.372 264.12 234.072 264.12C234.716 264.12 235.612 264.372 236.144 264.68C236.732 265.044 237.544 265.24 238.44 265.24C239.644 265.24 239.84 265.156 239.84 264.68C239.84 264.372 239.98 264.12 240.12 264.12C240.288 264.12 240.4 264.372 240.4 264.652C240.4 265.212 240.512 265.212 245.328 265.632C245.972 265.688 246.756 265.884 247.064 266.052C247.792 266.444 249.556 266.444 249.78 266.08C250.032 265.66 252.048 267.732 252.832 269.216C253.364 270.224 253.616 270.448 254.54 270.588C255.156 270.7 255.688 270.924 255.744 271.092C255.884 271.484 256.836 271.484 257.088 271.092C257.396 270.588 260.028 270.952 260.476 271.568C260.952 272.212 260.952 273.36 260.448 274.088C259.832 274.956 260.28 275.432 261.568 275.208C262.184 275.124 263.276 274.956 264.004 274.872C265.432 274.676 265.46 274.648 265.74 272.996C265.824 272.38 266.188 271.68 266.608 271.344C266.972 271.008 267.28 270.588 267.28 270.42C267.28 270 265.796 269.16 265.04 269.16C264.032 269.16 262.548 268.068 262.352 267.256C262.268 266.836 262.1 266.304 261.932 266.08C261.792 265.856 261.568 265.38 261.428 265.072C261.288 264.736 260.952 264.4 260.728 264.316C260.476 264.204 260.28 263.84 260.28 263.476C260.28 263.028 259.888 262.496 259.104 261.852C255.856 259.22 255.352 258.016 257.06 256.728C257.984 256.028 258.068 256 258.824 256.392C259.272 256.616 259.972 257.232 260.364 257.764C260.98 258.604 261.316 258.772 262.66 258.94C263.976 259.08 264.312 259.024 265.04 258.52C265.684 258.044 265.88 257.708 265.88 256.98C265.88 256.392 266.076 255.888 266.384 255.664C266.664 255.468 267.112 254.964 267.392 254.544C268.008 253.592 269.436 252.92 270.444 253.116C270.892 253.2 271.536 253.116 271.9 252.92C272.852 252.416 273.272 252.696 273.636 254.124C273.832 254.824 274.168 255.552 274.392 255.748C275.596 256.84 275.652 256.868 275.932 256.308C276.38 255.524 275.792 253.844 274.84 253.144C274.196 252.696 274.084 252.444 274.308 252.164C274.532 251.94 274.784 251.884 275.092 252.08C275.708 252.388 276.492 252.22 278.34 251.408C279.656 250.82 279.936 250.792 283.1 251.016C284.948 251.128 287.216 251.296 288.14 251.352C292.2 251.632 293.852 251.884 295.56 252.5C297.744 253.284 304.38 254.236 304.884 253.816C305.416 253.424 307.376 253.172 307.768 253.508C307.992 253.676 309.336 253.704 311.688 253.536C314.32 253.368 315.524 253.368 316.14 253.62C316.672 253.816 318.912 253.956 322.02 253.984C326.164 254.04 327.648 254.152 330.476 254.74C332.436 255.132 334.256 255.356 334.76 255.272C335.264 255.16 336.664 255.356 338.204 255.72C339.604 256.056 341.48 256.504 342.32 256.7C343.16 256.896 345.484 257.092 347.472 257.12C349.796 257.12 352.092 257.344 353.856 257.68C355.676 258.044 357.804 258.24 360.016 258.24C363.656 258.24 364.328 258.464 366.204 260.144C366.932 260.844 366.96 260.844 366.96 260.256C366.96 259.948 367.128 259.584 367.324 259.444C367.492 259.332 369.424 259.192 371.58 259.136C373.736 259.08 377.012 259.024 378.86 258.94C382.92 258.828 383.48 258.828 386.084 258.856C388.716 258.912 395.716 258.016 396.696 257.512C397.088 257.288 397.928 257.12 398.572 257.12C399.188 257.12 400.14 256.896 400.672 256.644C401.484 256.252 401.904 256.224 402.968 256.476C403.948 256.7 404.592 256.672 405.684 256.392C406.496 256.168 407.644 256 408.26 256C408.876 256 410.444 255.804 411.76 255.58C413.076 255.356 414.756 255.16 415.484 255.16C416.968 255.16 418.676 254.544 418.928 253.928C419.012 253.704 418.816 253.06 418.48 252.444C418.172 251.856 417.724 251.072 417.5 250.68C417.304 250.288 416.716 248.776 416.212 247.32C415.456 245.108 415.288 244.156 415.176 241.608C415.12 239.956 415.148 238.416 415.232 238.22C415.316 237.94 415.596 237.94 416.492 238.164C417.5 238.444 417.724 238.416 418.452 237.856C418.928 237.52 419.404 237.24 419.544 237.24C419.684 237.24 419.964 237.044 420.188 236.792C420.412 236.512 420.776 236.428 421.224 236.54C421.728 236.652 421.84 236.596 421.672 236.344C421.56 236.12 421.588 236.064 421.728 236.204C421.868 236.344 421.98 236.596 421.98 236.764C421.98 237.408 423.296 237.268 424.388 236.54C425.564 235.7 427.804 235.28 428.112 235.812C428.224 235.98 428.616 236.12 428.98 236.12C429.876 236.12 430.184 235.028 429.54 234.076C428.98 233.236 429.316 232.928 430.52 233.18C431.248 233.348 431.528 233.208 432.396 232.34C433.6 231.136 434.02 230.996 435.056 231.556C435.504 231.752 436.176 232.06 436.568 232.228C437.212 232.452 437.268 232.424 437.016 232.116C436.596 231.64 436.848 231.36 437.744 231.36C438.276 231.36 438.388 231.472 438.276 231.92C437.968 233.068 438.612 232.144 439.06 230.772C439.396 229.82 439.508 228.784 439.424 227.664C439.312 226.012 439.256 225.956 437.716 224.584C436.848 223.828 436.12 223.016 436.12 222.792C436.12 221.924 438.92 221.644 438.92 222.512C438.92 222.68 439.172 222.288 439.48 221.616C439.76 220.972 440.152 220.44 440.32 220.44C440.46 220.44 440.6 220.244 440.6 220.02C440.6 219.796 440.824 219.404 441.132 219.124C441.552 218.704 441.664 218.116 441.776 215.792C441.86 213.3 441.972 212.824 442.616 211.872C443.008 211.256 443.428 210.472 443.54 210.108C443.652 209.772 444.044 209.016 444.408 208.484C444.772 207.924 445.08 207.224 445.108 206.888C445.108 206.552 445.332 205.74 445.612 205.068C446.06 203.948 446.06 203.752 445.696 202.996C445.332 202.296 445.332 202.016 445.64 201.288C446.508 199.188 446.172 197.508 444.8 197.06C444.464 196.948 444.24 196.64 444.24 196.276C444.212 195.492 443.624 193.364 443.12 192.384C442.812 191.74 442.812 191.432 443.232 190.396C443.484 189.752 443.68 188.996 443.68 188.772C443.68 188.52 443.988 188.044 444.38 187.68C444.744 187.316 445.276 186.448 445.556 185.748C445.836 185.048 446.452 183.9 446.984 183.228C447.656 182.332 447.88 181.772 447.824 181.128C447.768 180.652 447.572 180.26 447.404 180.26C447.208 180.26 447.068 180.12 447.096 179.98C447.124 179.812 447.32 179.728 447.516 179.784C447.712 179.84 447.88 179.756 447.88 179.644C447.88 179.504 448.328 178.748 448.86 177.908C449.728 176.592 449.84 176.228 449.84 174.576C449.84 172.028 450.008 171.86 452.108 171.916C453.144 171.944 454.096 171.804 454.432 171.58C454.768 171.384 455.58 171.132 456.28 171.02C458.128 170.74 459.612 170.292 459.948 169.872C460.116 169.676 460.396 169.564 460.592 169.648C460.788 169.732 461.18 169.536 461.46 169.2C461.74 168.892 462.188 168.64 462.44 168.64C462.72 168.64 463.252 168.388 463.644 168.08C464.036 167.772 464.568 167.52 464.82 167.52C465.072 167.52 465.772 167.128 466.36 166.68C466.948 166.204 467.732 165.84 468.152 165.84C468.544 165.84 469.076 165.588 469.356 165.308C469.888 164.748 472.296 163.6 472.94 163.6C473.164 163.6 473.388 163.376 473.5 163.068C473.668 162.48 473.416 161.64 473.052 161.64C472.912 161.64 472.8 161.276 472.8 160.828C472.8 160.352 472.688 159.932 472.548 159.82C472.38 159.736 472.576 159.064 472.968 158.308C473.584 157.16 473.78 156.992 474.368 157.104C474.956 157.216 475.04 157.356 474.9 157.916C474.788 158.364 474.844 158.532 475.04 158.42C475.18 158.336 475.32 158.392 475.32 158.532C475.32 159.26 475.796 158.728 476.244 157.468C477 155.34 476.832 154.92 475.264 154.92C474.956 154.92 474.256 154.668 473.752 154.332C473.22 154.024 472.688 153.828 472.548 153.912C472.24 154.108 471.96 153.436 471.96 152.568C471.96 151.98 472.296 151.532 474.816 148.788C475.936 147.584 475.6 147.36 472.716 147.36C470.756 147.36 470.392 147.276 469.328 146.52C467.732 145.428 467.312 144.28 468.488 144.28C468.712 144.28 469.16 143.832 469.468 143.3C470.42 141.704 471.148 141.368 476.664 140.052C477.532 139.828 477.84 139.604 477.84 139.212C477.84 138.82 477.644 138.68 477 138.68C475.908 138.68 474.172 137.812 474.284 137.28C474.312 137.056 475.04 136.496 475.88 136.076C478.904 134.564 478.876 133.864 475.796 134.564C473.64 135.068 464.596 135.348 463.364 134.928C462.496 134.648 462.552 133.752 463.504 133.248C465.408 132.184 466.276 131.932 468.824 131.652C470.308 131.512 472.548 131.148 473.78 130.868L476.02 130.392L476.104 129.272C476.16 128.348 476.496 127.844 478.12 126.08C479.744 124.316 480.08 123.784 480.248 122.72C480.332 122.02 480.584 121.18 480.808 120.844C481.032 120.508 481.2 119.892 481.2 119.5C481.2 118.828 481.144 118.8 479.324 118.8C477.532 118.8 474.004 118.324 471.12 117.708C470.42 117.54 469.356 117.4 468.74 117.4C467.312 117.372 464.96 116.532 464.568 115.944C464.12 115.244 464.764 114.124 465.744 113.9C467.536 113.508 468.488 111.492 466.976 111.296C466.36 111.212 464.428 109.14 464.064 108.188C463.812 107.488 464.54 106.872 465.8 106.676C466.332 106.62 467.676 106.34 468.74 106.088C469.832 105.864 471.904 105.584 473.36 105.472C475.46 105.36 476.384 105.136 477.7 104.52C478.764 104.016 480.108 103.652 481.34 103.54C483.748 103.288 485.008 102.812 485.26 102.028C485.512 101.244 487.836 99.48 488.648 99.48C489.04 99.48 489.852 98.948 490.72 98.08C491.504 97.296 492.456 96.484 492.82 96.232C493.24 95.952 493.66 95.224 493.968 94.216C494.22 93.348 494.752 92.228 495.116 91.724C495.452 91.248 495.76 90.604 495.76 90.296C495.76 89.82 495.452 89.736 492.316 89.568C488.872 89.4 485.232 88.784 484.196 88.224C483.888 88.084 483.132 88 482.544 88.084C481.62 88.196 481.312 88.112 480.528 87.412C479.996 86.964 479.436 86.6 479.268 86.6C479.1 86.6 478.96 86.292 478.96 85.928C478.96 85.396 479.072 85.312 479.66 85.396C480.052 85.48 480.724 85.312 481.284 84.948C482.32 84.304 484.308 84.164 485.848 84.612C486.324 84.752 487.052 84.808 487.472 84.724C488.312 84.556 488.48 83.8 487.668 83.8C486.8 83.8 486.688 83.268 487.472 82.932C488.396 82.512 488.144 82.12 486.912 82.12C485.848 82.12 483.804 81.336 483.608 80.832C483.552 80.664 483.664 80.244 483.86 79.936C484.364 79.264 485.848 79.012 490.44 78.872C496.264 78.704 496.432 78.592 496.012 75.4C495.788 73.944 495.592 73.412 494.892 72.712C494.108 71.9 494.052 71.732 494.304 70.948C494.584 70.164 494.528 70.052 493.8 69.52C493.38 69.212 492.904 68.96 492.764 68.96C492.624 68.96 492.204 68.624 491.812 68.176C491.42 67.756 490.748 67.168 490.328 66.86C488.76 65.768 488.788 63.64 490.356 63.64C490.804 63.64 491.616 63.5 492.204 63.332C493.072 63.108 493.38 62.828 493.772 61.876C494.248 60.784 494.248 60.672 493.828 60.168C493.156 59.384 488.9 57.48 487.416 57.312C486.24 57.172 484.112 56.612 481.62 55.8C481.172 55.66 479.408 55.38 477.7 55.24C476.02 55.072 474.06 54.82 473.36 54.68C472.66 54.54 471.176 54.344 470.028 54.232C468.292 54.064 467.816 53.924 467.032 53.224C466.136 52.412 466.108 52.356 466.5 51.6C466.724 51.152 467.2 50.732 467.536 50.62C467.9 50.536 468.572 50.284 469.02 50.06C469.496 49.864 470.588 49.528 471.484 49.332C472.632 49.08 473.416 48.716 474.144 48.044C475.124 47.148 475.124 47.12 474.452 47.12C474.088 47.12 473.5 46.84 473.192 46.476C472.856 46.14 472.212 45.664 471.792 45.44C470 44.516 468.88 43.424 468.74 42.388C468.656 41.828 468.264 40.736 467.844 39.952C467.312 38.86 467.2 38.412 467.424 38.02C467.648 37.6 467.508 37.32 466.724 36.508C465.884 35.64 465.688 35.556 465.212 35.864C464.876 36.06 464.68 36.088 464.652 35.92C464.624 35.78 464.596 35.5 464.568 35.304C464.54 34.856 461.152 34.184 460.032 34.38C459.556 34.464 458.8 34.38 458.352 34.212C457.904 34.044 456.728 33.736 455.72 33.54C454.712 33.344 453.312 33.008 452.584 32.812C451.38 32.476 451.212 32.504 450.68 32.98C450.12 33.484 450.092 33.484 448.86 32.868C447.796 32.336 447.376 32.28 445.556 32.448C444.016 32.588 443.092 32.504 441.888 32.168C440.992 31.916 440.068 31.72 439.816 31.776C439.564 31.804 439.004 31.636 438.612 31.356C437.716 30.74 434.272 30.32 432.06 30.516C430.8 30.628 429.96 30.516 428.7 30.096C427.776 29.788 425.956 29.452 424.64 29.34C423.324 29.228 421.588 28.948 420.776 28.752C419.964 28.528 418.76 28.36 418.088 28.36C417.416 28.36 416.072 28.108 415.12 27.8C414.168 27.492 412.712 27.24 411.928 27.24C411.144 27.24 409.38 27.044 407.98 26.792C406.496 26.54 402.604 26.288 398.46 26.176C393.672 26.036 391.264 25.84 390.816 25.616C390.424 25.392 388.66 25.196 386.336 25.112C384.236 25.028 382.052 24.832 381.492 24.692C380.932 24.552 379.364 24.44 377.992 24.412C376.62 24.412 373.036 24.272 370.04 24.104C367.044 23.936 364.384 23.824 364.16 23.824C363.936 23.852 360.184 23.908 355.844 23.964C350.552 24.02 347.836 24.16 347.584 24.384C347.36 24.552 346.94 24.692 346.66 24.692C346.352 24.664 345.848 24.748 345.54 24.832C345.148 24.944 344.84 24.804 344.476 24.3C344 23.656 344 23.516 344.448 22.06C344.98 20.184 344.784 19.82 343.076 19.596C342.292 19.484 341.704 19.204 341.284 18.728C340.5 17.804 339.604 17.804 338.596 18.756C338.008 19.316 337.728 19.428 337.644 19.176C337.56 18.98 337.224 18.476 336.86 18.056C336.524 17.636 335.992 16.796 335.712 16.18L335.18 15.088L333.22 15.06C332.156 15.06 330.588 15.2 329.776 15.396C328.964 15.592 327.648 15.76 326.836 15.76C325.24 15.76 323.448 16.46 322.608 17.412C322.3 17.72 321.88 18 321.628 18C321.376 18 320.9 18.196 320.564 18.42C320.256 18.644 318.828 19.092 317.428 19.4C314.264 20.1 307.124 20.184 303.596 19.54C300.852 19.064 290.576 18.42 289.568 18.672C289.176 18.756 288.392 18.672 287.804 18.42C287.216 18.196 285.116 17.636 283.1 17.16C281.112 16.684 278.956 16.068 278.34 15.76C277.724 15.48 276.604 15.088 275.82 14.892C275.064 14.724 273.552 14.276 272.46 13.884C271.396 13.52 269.688 13.016 268.68 12.792C267.672 12.54 265.908 12.064 264.76 11.728C263.612 11.364 261.904 10.86 260.98 10.58C260.056 10.328 258.936 9.992 258.46 9.82401C256.36 9.09598 250.536 7.668 249.64 7.63998C249.108 7.63998 246.784 7.19199 244.46 6.66C242.164 6.12799 239.252 5.59598 238.048 5.51199C236.816 5.42798 235.528 5.14798 235.192 4.92398C234.828 4.69998 233.624 4.41998 232.504 4.28C231.384 4.13998 229.704 3.91599 228.78 3.74799C225.056 3.18799 219.96 2.60001 217.72 2.45999C216.404 2.37598 214.472 2.20798 213.38 2.03998C210.776 1.64798 203.972 1.172 203.44 1.36798C203.216 1.452 200.892 1.36798 198.26 1.228C190.756 0.751984 189.188 0.723999 188.292 1.116ZM129.436 10.048C129.66 10.664 129.016 11.28 128.708 10.748C128.428 10.3 128.596 9.60001 128.988 9.60001C129.128 9.60001 129.324 9.79599 129.436 10.048ZM157.268 13.016C157.716 13.408 158.64 14.78 158.64 15.088C158.64 15.424 156.064 14.976 155.812 14.612C155.532 14.164 155.784 13.184 156.232 12.904C156.652 12.624 156.792 12.624 157.268 13.016ZM151.92 13.8C151.92 14.36 151.78 14.64 151.5 14.64C151.22 14.64 151.08 14.36 151.08 13.8C151.08 13.24 151.22 12.96 151.5 12.96C151.78 12.96 151.92 13.24 151.92 13.8ZM450.568 45.496C450.708 45.692 450.624 45.748 450.344 45.636C450.092 45.552 449.756 45.636 449.588 45.804C449.42 45.972 449.196 46 449.084 45.888C448.86 45.664 449.504 45.16 450.036 45.16C450.204 45.16 450.456 45.3 450.568 45.496ZM449.168 46.168C449.56 46.448 449.84 46.532 449.784 46.392C449.728 46.252 449.84 46.112 449.98 46.056C450.148 46.028 450.26 46.168 450.26 46.336C450.26 46.56 449.868 46.728 449.336 46.756C448.86 46.784 448.496 46.672 448.58 46.532C448.692 46.392 448.552 46.364 448.328 46.448C447.88 46.616 447.712 46.252 448.076 45.916C448.328 45.636 448.356 45.664 449.168 46.168ZM457.372 46.924C457.82 47.484 457.456 47.68 456.028 47.68L454.74 47.652L455.412 47.12C456.168 46.476 456.924 46.392 457.372 46.924ZM439.844 47.316C439.648 47.372 439.312 47.372 439.144 47.316C438.948 47.232 439.088 47.176 439.48 47.176C439.872 47.176 440.012 47.232 439.844 47.316ZM462.58 51.88C462.664 52.02 462.552 52.16 462.3 52.16C462.048 52.16 461.936 52.02 462.02 51.88C462.104 51.712 462.244 51.6 462.3 51.6C462.356 51.6 462.496 51.712 462.58 51.88ZM21.44 55.52C21.44 55.66 21.636 55.8 21.86 55.8C22.448 55.8 22.392 56.248 21.72 56.92C20.6 58.04 19.76 57.452 20.516 56.108C21.02 55.24 21.44 54.988 21.44 55.52ZM471.96 159.4C471.96 159.54 471.764 159.68 471.54 159.68C471.316 159.68 471.12 159.54 471.12 159.4C471.12 159.232 471.316 159.12 471.54 159.12C471.764 159.12 471.96 159.232 471.96 159.4ZM455.944 161.668C456.028 162.2 455.3 163.04 454.74 163.04C454.124 163.04 453.984 162.172 454.516 161.584C455.048 160.968 455.804 161.024 455.944 161.668ZM54.088 178.776C55.124 179.252 56.44 180.624 56.44 181.24C56.44 182.052 55.74 182.472 55.236 181.94C54.984 181.716 54.62 181.52 54.424 181.52C53.976 181.492 51.68 179.448 51.68 179.056C51.68 178.888 52.016 178.692 52.464 178.636C52.884 178.58 53.248 178.496 53.276 178.468C53.304 178.468 53.668 178.608 54.088 178.776ZM53.78 205.348C54.06 206.16 53.752 206.328 53.08 205.74C52.632 205.348 52.604 205.18 52.856 204.984C53.416 204.648 53.584 204.704 53.78 205.348ZM422.204 234.72C422.12 235.028 421.952 235.28 421.812 235.28C421.672 235.28 421.56 235.028 421.56 234.72C421.56 234.412 421.728 234.16 421.952 234.16C422.204 234.16 422.288 234.356 422.204 234.72ZM257.004 265.38C256.808 265.968 256.668 265.912 256.724 265.268C256.724 264.96 256.864 264.764 256.976 264.848C257.088 264.932 257.116 265.156 257.004 265.38Z" fill="#00A3FF"/>
</svg>
