<svg width="560" height="560" viewBox="0 0 560 560" fill="none" xmlns="http://www.w3.org/2000/svg">
<path d="M222.292 144.116C221.676 144.368 219.464 144.424 213.416 144.284C208.992 144.2 204.764 144.116 203.98 144.116C202.468 144.088 199.164 144.592 197.792 145.096C197.12 145.32 196.784 145.292 196.056 144.928C194.796 144.284 194.096 144.368 193.172 145.348L192.388 146.188L191.548 145.572C190.792 145.04 190.568 144.984 189.644 145.236C189.056 145.404 186.732 145.544 184.492 145.572C180.516 145.6 180.32 145.628 177.212 146.692C174.552 147.588 173.628 147.784 171.696 147.784C170.044 147.784 169.176 147.924 168.672 148.26C168.308 148.512 167.888 148.652 167.776 148.568C167.44 148.372 164.808 148.82 161.84 149.632C155.344 151.368 154.336 151.676 153.552 152.292C153.048 152.684 152.712 152.796 152.656 152.6C152.544 152.292 150.92 153.916 150.92 154.336C150.92 154.756 151.816 154.924 152.348 154.616C152.628 154.42 153.216 154.28 153.664 154.28C154.084 154.28 154.588 154.14 154.756 153.972C154.952 153.776 155.288 153.972 155.904 154.7C156.884 155.932 158.172 156.268 160.776 156.016C162.204 155.904 162.54 155.764 163.044 155.092C163.772 154.084 165.116 153.972 165.928 154.868C166.348 155.344 166.656 155.428 167.58 155.288C168.868 155.092 168.952 155.092 172.284 155.176C174.552 155.26 174.804 155.204 175.224 154.644C175.476 154.308 176.036 153.916 176.456 153.748C177.1 153.496 177.324 153.58 178.108 154.308C179.48 155.568 179.928 155.736 181.608 155.512C182.784 155.372 183.288 155.428 183.848 155.82C184.52 156.268 184.576 156.408 184.408 157.612C184.296 158.312 184.212 159.18 184.212 159.488C184.24 160.384 183.512 160.888 182.924 160.412C182.672 160.188 181.86 160.02 181.104 160.02C180.04 160.02 179.76 160.104 179.76 160.468C179.76 161.168 178.976 161.364 178.78 160.692C178.612 160.216 177.912 159.992 177.1 160.16C176.96 160.188 176.064 160.272 175.14 160.328C174.216 160.384 172.9 160.552 172.2 160.692C165.06 162.12 162.064 162.372 154.56 162.26C148.792 162.148 143.584 161.812 137.9 161.14C136.22 160.944 133.364 160.776 131.6 160.776C128.38 160.748 125.496 161.056 126.28 161.336C128.8 162.232 131.768 162.596 132.972 162.176C134.064 161.784 136.08 162.932 136.08 163.968C136.08 164.332 135.912 164.668 135.744 164.668C135.548 164.696 135.268 164.724 135.1 164.78C134.96 164.808 134.68 164.864 134.484 164.864C133.952 164.948 133.252 166.6 133 168.392C132.86 169.288 132.636 170.156 132.496 170.296C132.16 170.632 125.16 170.128 124.404 169.736C124.124 169.568 122.136 169.288 119.98 169.12C117.824 168.952 115.5 168.672 114.828 168.532C114.128 168.364 112.812 168.252 111.888 168.28C110.936 168.28 108.416 168.028 106.26 167.72C104.104 167.384 101.584 167.02 100.66 166.88C99.736 166.74 98.616 166.488 98.168 166.32C97.72 166.152 96.768 165.956 96.068 165.9C95.368 165.844 94.108 165.648 93.324 165.508C92.512 165.34 90.496 165.228 88.844 165.228C87.164 165.228 85.232 165.116 84.504 164.948C82.628 164.528 77.056 164.752 76.076 165.284C75.32 165.676 75.152 165.648 73.864 165.116L72.464 164.528L71.288 165.144C69.944 165.872 69.552 165.9 69.356 165.368C69.132 164.808 67.116 164.64 65.548 165.06C64.372 165.368 63.924 165.34 62.608 164.976C61.18 164.584 60.956 164.584 60.004 165.004C59.164 165.368 57.624 165.508 53.06 165.62C46.648 165.788 45.08 165.984 44.24 166.74C43.932 167.02 43.12 167.272 42.364 167.328C41.244 167.412 40.852 167.608 39.956 168.56L38.864 169.68L40.628 169.736C41.608 169.764 42.868 169.764 43.4 169.736C44.996 169.624 46.76 169.96 47.292 170.492C47.936 171.136 49.364 171.64 50.512 171.64C50.988 171.64 51.744 171.836 52.192 172.06C52.612 172.284 53.396 172.48 53.928 172.48C54.656 172.48 54.824 172.564 54.712 172.9C54.6 173.124 54.236 173.404 53.9 173.488C52.892 173.74 53.34 174.44 54.488 174.44C55.608 174.44 55.636 174.524 54.88 175.28C54.516 175.644 53.984 175.84 53.396 175.812C52.892 175.784 52.136 175.98 51.66 176.232C51.212 176.484 50.26 176.68 49.56 176.68C48.272 176.708 45.836 177.212 44.408 177.772C43.848 177.996 43.316 177.996 42.588 177.8C42.028 177.66 40.908 177.52 40.096 177.52C38.416 177.52 38.024 177.94 38.752 179.06C39.088 179.592 39.452 179.76 40.18 179.76C41.888 179.76 41.636 180.628 39.816 180.964C39.312 181.076 38.612 181.44 38.276 181.804C37.94 182.168 37.38 182.616 37.044 182.812C36.316 183.176 36.204 183.68 36.82 183.68C37.772 183.68 39.508 184.408 39.648 184.856C39.844 185.556 39.564 185.892 38.948 185.724C38.584 185.64 38.304 185.78 38.108 186.144C37.94 186.452 37.436 186.788 36.96 186.9C36.316 187.04 36.12 187.236 36.12 187.74C36.12 188.496 36.792 188.804 37.968 188.608C38.5 188.496 38.948 188.636 39.34 188.972C40.012 189.616 42.336 189.98 43.064 189.588C43.372 189.42 43.708 189.392 43.82 189.504C43.932 189.616 44.408 189.7 44.884 189.7C45.696 189.7 45.78 189.784 45.864 190.596C45.976 191.744 45.22 192.92 44.352 192.92C43.988 192.92 43.372 192.584 42.98 192.164C42.42 191.548 42.28 191.492 42.28 191.856C42.28 192.136 41.86 192.556 41.356 192.808C40.88 193.06 40.208 193.48 39.9 193.76C39.592 194.012 38.584 194.516 37.66 194.88C34.972 195.916 33.796 197.344 34.86 198.24C35.224 198.548 35.476 198.52 36.344 198.1C36.904 197.82 37.772 197.54 38.22 197.484C38.696 197.456 39.536 197.344 40.096 197.288C40.824 197.204 41.244 197.316 41.58 197.68C41.972 198.1 42.42 198.156 44.744 198.072C46.228 198.044 47.908 197.904 48.496 197.82C49.364 197.652 49.56 197.708 49.84 198.24C50.372 199.22 51.296 200.2 51.576 200.032C51.716 199.948 52.024 200.032 52.248 200.228C52.612 200.508 52.612 200.648 52.192 201.236C51.968 201.628 51.828 201.992 51.912 202.076C52.276 202.468 50.568 203 49.532 202.832C48.72 202.692 48.3 202.776 47.908 203.112C47.572 203.42 47.152 203.504 46.592 203.392C45.78 203.224 45.136 203.42 41.664 204.82C39.508 205.66 38.276 206.668 38.528 207.34C38.64 207.592 38.892 207.732 39.144 207.62C39.368 207.536 39.788 207.676 40.068 207.928C40.516 208.32 40.964 208.376 42.896 208.208C47.936 207.788 48.216 207.788 48.888 208.236C49.504 208.628 49.868 209.972 49.364 210.028C46.76 210.224 45.472 210.504 45.08 210.98C44.856 211.26 44.548 211.288 43.932 211.12C43.288 210.924 42.868 211.008 42.196 211.4C41.692 211.708 41.048 211.96 40.768 211.96C40.404 211.96 40.292 212.044 40.488 212.24C40.628 212.38 41.692 212.576 42.84 212.688C43.988 212.8 45.108 212.996 45.304 213.164C45.808 213.556 48.776 213.668 49.196 213.304C49.448 213.108 49.924 213.36 50.848 214.172C52.22 215.376 52.948 215.544 54.18 214.984C54.768 214.732 55.048 214.732 55.524 215.04C55.944 215.292 57.12 215.432 59.22 215.46C62.692 215.488 62.552 215.432 67.032 218.568C69.048 219.996 69.384 220.108 70.336 219.968C70.924 219.856 71.4 219.912 71.4 220.052C71.4 220.584 71.036 221.2 70.728 221.2C70.308 221.2 68.6 222.824 68.6 223.244C68.6 223.44 68.992 223.804 69.44 224.056C70.784 224.84 70.42 226.716 68.992 226.352C68.572 226.24 68.04 226.52 67.228 227.276C66.556 227.864 65.464 228.508 64.792 228.704C63.308 229.124 62.776 230.02 62.496 232.484L62.3 234.22L60.9 234.864C60.144 235.256 58.8 235.648 57.96 235.76C54.348 236.32 51.688 236.88 51.436 237.132C51.268 237.3 50.904 237.44 50.652 237.44C49.98 237.44 47.824 240.212 47.936 240.912C47.992 241.36 48.272 241.528 49 241.64C49.812 241.752 50.008 241.92 50.064 242.508C50.12 242.928 50.372 243.46 50.652 243.712C51.296 244.3 53.62 245 54.04 244.72C54.404 244.496 55.664 244.692 55.86 245C56.196 245.56 55.608 246.12 54.684 246.12C54.04 246.12 53.424 246.372 52.892 246.82C52.444 247.184 51.604 247.576 51.016 247.66C48.188 248.08 48.02 248.164 48.076 249.06C48.132 249.536 48.048 250.236 47.908 250.656C47.684 251.3 47.74 251.412 48.328 251.552C48.692 251.664 49 251.916 49 252.14C49 252.364 49.168 252.532 49.364 252.504C49.56 252.448 49.672 252.672 49.644 253.036C49.588 253.428 49.756 253.708 50.12 253.82C50.848 254.044 51.632 255.22 51.436 255.752C51.352 255.948 50.792 256.256 50.204 256.396C48.552 256.788 48.692 257.404 50.736 258.524C52.304 259.392 52.668 259.504 53.956 259.364C55.244 259.224 55.468 259.28 56.112 259.924L56.84 260.652L56.196 261.716C55.86 262.304 55.468 263.144 55.3 263.62C55.048 264.348 54.852 264.488 53.536 264.684C52.36 264.88 51.968 265.076 51.744 265.608C51.576 265.972 51.212 266.336 50.904 266.42C50.624 266.532 50.26 266.84 50.092 267.148C49.476 268.324 50.596 269.584 51.884 269.108C52.276 268.94 52.696 268.94 52.948 269.108C53.172 269.248 53.648 269.304 54.04 269.22C54.432 269.136 55.132 269.276 55.58 269.528C56.056 269.78 56.952 270.032 57.624 270.088C59.388 270.256 61.012 271.012 61.208 271.712C61.376 272.468 60.872 273.924 60.48 273.7C60.34 273.616 60.032 273.616 59.864 273.756C59.668 273.868 58.828 274.008 58.016 274.036C57.092 274.064 56.168 274.316 55.608 274.68C54.992 275.044 54.208 275.24 53.284 275.24C51.436 275.24 48.524 276.248 48.3 276.948C48.076 277.592 49.112 278.572 49.98 278.6C51.296 278.628 51.38 279.048 50.288 280.364C49.252 281.624 49 282.604 49.644 282.912C49.812 282.996 50.372 283.332 50.82 283.64C52.052 284.452 53.368 285.04 54.012 285.04C54.32 285.04 54.908 285.18 55.356 285.348C55.776 285.544 57.204 285.852 58.52 286.02C59.864 286.216 61.824 286.776 63 287.252C64.876 288.064 65.38 288.148 67.816 288.148C69.3 288.148 71.12 288.316 71.876 288.512C72.604 288.736 73.78 288.988 74.452 289.072C75.124 289.184 76.02 289.436 76.468 289.66C77.056 289.968 77.728 290.052 79.016 289.912C79.996 289.828 81.536 289.744 82.46 289.772C83.384 289.772 84.868 289.772 85.764 289.8C87.556 289.828 87.948 290.164 87.416 291.312C87.052 292.124 84.756 293.44 83.692 293.44C83.16 293.44 82.74 293.664 82.432 294.14C82.012 294.784 82.012 294.896 82.404 295.344C83.608 296.688 82.992 298.704 81.06 299.74C80.108 300.272 79.352 301.42 77.616 305.004C76.86 306.572 76.916 306.88 78.008 307.44C78.456 307.664 79.016 307.972 79.24 308.168C79.772 308.588 82.068 309.036 84.952 309.288C87.024 309.456 87.248 309.54 88.228 310.492C89.208 311.416 89.432 312.032 89.348 313.348C89.32 313.88 87.836 314.16 85.204 314.132C84.392 314.132 83.72 314.244 83.72 314.384C83.72 314.524 84.028 315.336 84.42 316.176C85.036 317.492 85.148 318.248 85.26 321.412C85.344 323.904 85.54 325.388 85.82 325.92C86.044 326.368 86.24 327.264 86.24 327.88C86.24 328.832 86.072 329.224 85.4 329.84C84.952 330.26 84.56 330.708 84.56 330.82C84.56 330.904 84.98 331.408 85.512 331.884C86.716 333.032 87.36 335.132 87.36 337.848C87.36 340.34 85.988 344.372 85.064 344.624C84.588 344.736 84.532 344.932 84.644 345.912C84.756 346.612 85.036 347.256 85.4 347.536C85.932 347.956 85.96 348.068 85.568 348.18C85.316 348.264 84.924 348.376 84.672 348.46C84.336 348.572 84.28 348.796 84.448 349.496C84.56 350 84.672 350.784 84.7 351.26C84.728 352.268 85.344 354.144 85.848 354.9C86.352 355.6 86.352 357.532 85.904 357.672C85.708 357.756 85.204 357.868 84.784 357.952C82.768 358.4 83.412 360.164 86.66 363.02C87.724 363.944 88.816 364.924 89.096 365.204C89.376 365.456 90.3 365.876 91.14 366.1C92.008 366.324 92.792 366.576 92.96 366.66C93.1 366.744 93.688 366.828 94.276 366.856C94.892 366.856 95.984 367.22 96.88 367.724C98.308 368.536 98.616 368.592 101.892 368.704C104.328 368.76 105.84 368.956 106.932 369.32C109.06 370.02 110.292 370.272 111.44 370.188C112.728 370.104 113.68 370.468 114.912 371.588L115.948 372.484L118.524 372.232C119.924 372.12 121.604 372.008 122.22 371.98C122.836 371.98 123.508 371.868 123.704 371.728C124.432 371.28 126.028 371.868 127.148 372.988L128.268 374.108L129.472 373.688C131.04 373.156 134.092 373.044 134.932 373.52C135.296 373.716 135.996 373.8 136.5 373.716C137.284 373.576 137.564 373.716 138.152 374.388C138.684 374.976 139.132 375.2 139.832 375.2C140.336 375.2 140.924 375.396 141.12 375.62C141.316 375.844 141.792 376.04 142.184 376.04C142.576 376.04 143.108 376.236 143.388 376.488C143.864 376.908 143.948 376.908 144.648 376.348C145.516 375.648 146.244 375.592 146.72 376.18C147.196 376.768 147.728 376.712 148.68 375.984C149.408 375.452 149.604 375.424 150.164 375.732C150.528 375.928 151.172 376.768 151.62 377.608C152.74 379.764 153.16 380.044 155.428 380.268C156.856 380.38 157.472 380.576 157.752 380.968C158.172 381.528 160.524 381.948 163.8 382.004C165.06 382.06 165.984 382.256 166.74 382.648C167.356 382.984 168.364 383.404 168.98 383.6C169.596 383.796 170.436 384.188 170.856 384.468C171.248 384.776 171.864 385 172.2 385C173.292 385 175.448 386.12 175.924 386.932C176.204 387.38 176.904 387.94 177.548 388.192C178.724 388.668 179.732 389.62 179.76 390.236C179.76 390.432 179.928 390.6 180.152 390.6C181.048 390.6 181.972 391.72 182.056 392.924C182.14 393.96 182.252 394.156 183.12 394.576C183.652 394.856 184.828 395.724 185.724 396.508L187.348 397.936L190.596 398.048C192.388 398.132 193.928 398.244 194.04 398.3C194.404 398.524 200.984 396.872 202.048 396.284C202.356 396.088 202.86 395.948 203.168 395.92C207.004 395.78 208.768 395.528 209.076 395.108C209.356 394.716 209.552 394.8 210.728 395.976C212.128 397.404 212.492 397.488 214.34 397.012C216.328 396.48 218.204 396.816 218.764 397.768C219.128 398.384 221.004 398.272 221.424 397.6C221.788 396.984 222.488 396.844 222.656 397.376C222.712 397.544 223.384 397.712 224.168 397.74C225.232 397.768 225.568 397.88 225.624 398.272C225.708 398.608 225.876 398.692 226.184 398.58C227.304 398.104 227.696 398.132 228.62 398.692C229.18 399 229.88 399.28 230.188 399.28C230.916 399.28 232.12 400.092 232.12 400.568C232.12 400.876 232.68 400.96 234.724 400.96C236.124 400.96 237.72 400.848 238.252 400.68C238.952 400.484 239.484 400.54 240.548 400.932C241.304 401.24 241.92 401.408 241.92 401.324C241.92 401.268 242.34 401.492 242.844 401.856C243.32 402.22 243.992 402.528 244.3 402.556C244.608 402.584 245.756 402.78 246.848 403.004C247.912 403.256 249.2 403.396 249.704 403.368C250.18 403.34 250.628 403.452 250.712 403.62C250.768 403.788 251.356 403.956 252.028 403.984C252.7 404.04 253.848 404.236 254.576 404.488C255.752 404.88 256.004 404.852 257.292 404.432L258.72 403.984L259.784 404.712C260.456 405.16 261.24 405.44 261.856 405.44C262.388 405.44 263.312 405.636 263.844 405.86C264.404 406.084 265.16 406.28 265.524 406.28C265.916 406.28 266.364 406.476 266.56 406.7C266.756 406.952 267.372 407.12 268.072 407.12C268.716 407.12 269.612 407.372 270.144 407.68C270.732 408.044 271.544 408.24 272.44 408.24C273.644 408.24 273.84 408.156 273.84 407.68C273.84 407.372 273.98 407.12 274.12 407.12C274.288 407.12 274.4 407.372 274.4 407.652C274.4 408.212 274.512 408.212 279.328 408.632C279.972 408.688 280.756 408.884 281.064 409.052C281.792 409.444 283.556 409.444 283.78 409.08C284.032 408.66 286.048 410.732 286.832 412.216C287.364 413.224 287.616 413.448 288.54 413.588C289.156 413.7 289.688 413.924 289.744 414.092C289.884 414.484 290.836 414.484 291.088 414.092C291.396 413.588 294.028 413.952 294.476 414.568C294.952 415.212 294.952 416.36 294.448 417.088C293.832 417.956 294.28 418.432 295.568 418.208C296.184 418.124 297.276 417.956 298.004 417.872C299.432 417.676 299.46 417.648 299.74 415.996C299.824 415.38 300.188 414.68 300.608 414.344C300.972 414.008 301.28 413.588 301.28 413.42C301.28 413 299.796 412.16 299.04 412.16C298.032 412.16 296.548 411.068 296.352 410.256C296.268 409.836 296.1 409.304 295.932 409.08C295.792 408.856 295.568 408.38 295.428 408.072C295.288 407.736 294.952 407.4 294.728 407.316C294.476 407.204 294.28 406.84 294.28 406.476C294.28 406.028 293.888 405.496 293.104 404.852C289.856 402.22 289.352 401.016 291.06 399.728C291.984 399.028 292.068 399 292.824 399.392C293.272 399.616 293.972 400.232 294.364 400.764C294.98 401.604 295.316 401.772 296.66 401.94C297.976 402.08 298.312 402.024 299.04 401.52C299.684 401.044 299.88 400.708 299.88 399.98C299.88 399.392 300.076 398.888 300.384 398.664C300.664 398.468 301.112 397.964 301.392 397.544C302.008 396.592 303.436 395.92 304.444 396.116C304.892 396.2 305.536 396.116 305.9 395.92C306.852 395.416 307.272 395.696 307.636 397.124C307.832 397.824 308.168 398.552 308.392 398.748C309.596 399.84 309.652 399.868 309.932 399.308C310.38 398.524 309.792 396.844 308.84 396.144C308.196 395.696 308.084 395.444 308.308 395.164C308.532 394.94 308.784 394.884 309.092 395.08C309.708 395.388 310.492 395.22 312.34 394.408C313.656 393.82 313.936 393.792 317.1 394.016C318.948 394.128 321.216 394.296 322.14 394.352C326.2 394.632 327.852 394.884 329.56 395.5C331.744 396.284 338.38 397.236 338.884 396.816C339.416 396.424 341.376 396.172 341.768 396.508C341.992 396.676 343.336 396.704 345.688 396.536C348.32 396.368 349.524 396.368 350.14 396.62C350.672 396.816 352.912 396.956 356.02 396.984C360.164 397.04 361.648 397.152 364.476 397.74C366.436 398.132 368.256 398.356 368.76 398.272C369.264 398.16 370.664 398.356 372.204 398.72C373.604 399.056 375.48 399.504 376.32 399.7C377.16 399.896 379.484 400.092 381.472 400.12C383.796 400.12 386.092 400.344 387.856 400.68C389.676 401.044 391.804 401.24 394.016 401.24C397.656 401.24 398.328 401.464 400.204 403.144C400.932 403.844 400.96 403.844 400.96 403.256C400.96 402.948 401.128 402.584 401.324 402.444C401.492 402.332 403.424 402.192 405.58 402.136C407.736 402.08 411.012 402.024 412.86 401.94C416.92 401.828 417.48 401.828 420.084 401.856C422.716 401.912 429.716 401.016 430.696 400.512C431.088 400.288 431.928 400.12 432.572 400.12C433.188 400.12 434.14 399.896 434.672 399.644C435.484 399.252 435.904 399.224 436.968 399.476C437.948 399.7 438.592 399.672 439.684 399.392C440.496 399.168 441.644 399 442.26 399C442.876 399 444.444 398.804 445.76 398.58C447.076 398.356 448.756 398.16 449.484 398.16C450.968 398.16 452.676 397.544 452.928 396.928C453.012 396.704 452.816 396.06 452.48 395.444C452.172 394.856 451.724 394.072 451.5 393.68C451.304 393.288 450.716 391.776 450.212 390.32C449.456 388.108 449.288 387.156 449.176 384.608C449.12 382.956 449.148 381.416 449.232 381.22C449.316 380.94 449.596 380.94 450.492 381.164C451.5 381.444 451.724 381.416 452.452 380.856C452.928 380.52 453.404 380.24 453.544 380.24C453.684 380.24 453.964 380.044 454.188 379.792C454.412 379.512 454.776 379.428 455.224 379.54C455.728 379.652 455.84 379.596 455.672 379.344C455.56 379.12 455.588 379.064 455.728 379.204C455.868 379.344 455.98 379.596 455.98 379.764C455.98 380.408 457.296 380.268 458.388 379.54C459.564 378.7 461.804 378.28 462.112 378.812C462.224 378.98 462.616 379.12 462.98 379.12C463.876 379.12 464.184 378.028 463.54 377.076C462.98 376.236 463.316 375.928 464.52 376.18C465.248 376.348 465.528 376.208 466.396 375.34C467.6 374.136 468.02 373.996 469.056 374.556C469.504 374.752 470.176 375.06 470.568 375.228C471.212 375.452 471.268 375.424 471.016 375.116C470.596 374.64 470.848 374.36 471.744 374.36C472.276 374.36 472.388 374.472 472.276 374.92C471.968 376.068 472.612 375.144 473.06 373.772C473.396 372.82 473.508 371.784 473.424 370.664C473.312 369.012 473.256 368.956 471.716 367.584C470.848 366.828 470.12 366.016 470.12 365.792C470.12 364.924 472.92 364.644 472.92 365.512C472.92 365.68 473.172 365.288 473.48 364.616C473.76 363.972 474.152 363.44 474.32 363.44C474.46 363.44 474.6 363.244 474.6 363.02C474.6 362.796 474.824 362.404 475.132 362.124C475.552 361.704 475.664 361.116 475.776 358.792C475.86 356.3 475.972 355.824 476.616 354.872C477.008 354.256 477.428 353.472 477.54 353.108C477.652 352.772 478.044 352.016 478.408 351.484C478.772 350.924 479.08 350.224 479.108 349.888C479.108 349.552 479.332 348.74 479.612 348.068C480.06 346.948 480.06 346.752 479.696 345.996C479.332 345.296 479.332 345.016 479.64 344.288C480.508 342.188 480.172 340.508 478.8 340.06C478.464 339.948 478.24 339.64 478.24 339.276C478.212 338.492 477.624 336.364 477.12 335.384C476.812 334.74 476.812 334.432 477.232 333.396C477.484 332.752 477.68 331.996 477.68 331.772C477.68 331.52 477.988 331.044 478.38 330.68C478.744 330.316 479.276 329.448 479.556 328.748C479.836 328.048 480.452 326.9 480.984 326.228C481.656 325.332 481.88 324.772 481.824 324.128C481.768 323.652 481.572 323.26 481.404 323.26C481.208 323.26 481.068 323.12 481.096 322.98C481.124 322.812 481.32 322.728 481.516 322.784C481.712 322.84 481.88 322.756 481.88 322.644C481.88 322.504 482.328 321.748 482.86 320.908C483.728 319.592 483.84 319.228 483.84 317.576C483.84 315.028 484.008 314.86 486.108 314.916C487.144 314.944 488.096 314.804 488.432 314.58C488.768 314.384 489.58 314.132 490.28 314.02C492.128 313.74 493.612 313.292 493.948 312.872C494.116 312.676 494.396 312.564 494.592 312.648C494.788 312.732 495.18 312.536 495.46 312.2C495.74 311.892 496.188 311.64 496.44 311.64C496.72 311.64 497.252 311.388 497.644 311.08C498.036 310.772 498.568 310.52 498.82 310.52C499.072 310.52 499.772 310.128 500.36 309.68C500.948 309.204 501.732 308.84 502.152 308.84C502.544 308.84 503.076 308.588 503.356 308.308C503.888 307.748 506.296 306.6 506.94 306.6C507.164 306.6 507.388 306.376 507.5 306.068C507.668 305.48 507.416 304.64 507.052 304.64C506.912 304.64 506.8 304.276 506.8 303.828C506.8 303.352 506.688 302.932 506.548 302.82C506.38 302.736 506.576 302.064 506.968 301.308C507.584 300.16 507.78 299.992 508.368 300.104C508.956 300.216 509.04 300.356 508.9 300.916C508.788 301.364 508.844 301.532 509.04 301.42C509.18 301.336 509.32 301.392 509.32 301.532C509.32 302.26 509.796 301.728 510.244 300.468C511 298.34 510.832 297.92 509.264 297.92C508.956 297.92 508.256 297.668 507.752 297.332C507.22 297.024 506.688 296.828 506.548 296.912C506.24 297.108 505.96 296.436 505.96 295.568C505.96 294.98 506.296 294.532 508.816 291.788C509.936 290.584 509.6 290.36 506.716 290.36C504.756 290.36 504.392 290.276 503.328 289.52C501.732 288.428 501.312 287.28 502.488 287.28C502.712 287.28 503.16 286.832 503.468 286.3C504.42 284.704 505.148 284.368 510.664 283.052C511.532 282.828 511.84 282.604 511.84 282.212C511.84 281.82 511.644 281.68 511 281.68C509.908 281.68 508.172 280.812 508.284 280.28C508.312 280.056 509.04 279.496 509.88 279.076C512.904 277.564 512.876 276.864 509.796 277.564C507.64 278.068 498.596 278.348 497.364 277.928C496.496 277.648 496.552 276.752 497.504 276.248C499.408 275.184 500.276 274.932 502.824 274.652C504.308 274.512 506.548 274.148 507.78 273.868L510.02 273.392L510.104 272.272C510.16 271.348 510.496 270.844 512.12 269.08C513.744 267.316 514.08 266.784 514.248 265.72C514.332 265.02 514.584 264.18 514.808 263.844C515.032 263.508 515.2 262.892 515.2 262.5C515.2 261.828 515.144 261.8 513.324 261.8C511.532 261.8 508.004 261.324 505.12 260.708C504.42 260.54 503.356 260.4 502.74 260.4C501.312 260.372 498.96 259.532 498.568 258.944C498.12 258.244 498.764 257.124 499.744 256.9C501.536 256.508 502.488 254.492 500.976 254.296C500.36 254.212 498.428 252.14 498.064 251.188C497.812 250.488 498.54 249.872 499.8 249.676C500.332 249.62 501.676 249.34 502.74 249.088C503.832 248.864 505.904 248.584 507.36 248.472C509.46 248.36 510.384 248.136 511.7 247.52C512.764 247.016 514.108 246.652 515.34 246.54C517.748 246.288 519.008 245.812 519.26 245.028C519.512 244.244 521.836 242.48 522.648 242.48C523.04 242.48 523.852 241.948 524.72 241.08C525.504 240.296 526.456 239.484 526.82 239.232C527.24 238.952 527.66 238.224 527.968 237.216C528.22 236.348 528.752 235.228 529.116 234.724C529.452 234.248 529.76 233.604 529.76 233.296C529.76 232.82 529.452 232.736 526.316 232.568C522.872 232.4 519.232 231.784 518.196 231.224C517.888 231.084 517.132 231 516.544 231.084C515.62 231.196 515.312 231.112 514.528 230.412C513.996 229.964 513.436 229.6 513.268 229.6C513.1 229.6 512.96 229.292 512.96 228.928C512.96 228.396 513.072 228.312 513.66 228.396C514.052 228.48 514.724 228.312 515.284 227.948C516.32 227.304 518.308 227.164 519.848 227.612C520.324 227.752 521.052 227.808 521.472 227.724C522.312 227.556 522.48 226.8 521.668 226.8C520.8 226.8 520.688 226.268 521.472 225.932C522.396 225.512 522.144 225.12 520.912 225.12C519.848 225.12 517.804 224.336 517.608 223.832C517.552 223.664 517.664 223.244 517.86 222.936C518.364 222.264 519.848 222.012 524.44 221.872C530.264 221.704 530.432 221.592 530.012 218.4C529.788 216.944 529.592 216.412 528.892 215.712C528.108 214.9 528.052 214.732 528.304 213.948C528.584 213.164 528.528 213.052 527.8 212.52C527.38 212.212 526.904 211.96 526.764 211.96C526.624 211.96 526.204 211.624 525.812 211.176C525.42 210.756 524.748 210.168 524.328 209.86C522.76 208.768 522.788 206.64 524.356 206.64C524.804 206.64 525.616 206.5 526.204 206.332C527.072 206.108 527.38 205.828 527.772 204.876C528.248 203.784 528.248 203.672 527.828 203.168C527.156 202.384 522.9 200.48 521.416 200.312C520.24 200.172 518.112 199.612 515.62 198.8C515.172 198.66 513.408 198.38 511.7 198.24C510.02 198.072 508.06 197.82 507.36 197.68C506.66 197.54 505.176 197.344 504.028 197.232C502.292 197.064 501.816 196.924 501.032 196.224C500.136 195.412 500.108 195.356 500.5 194.6C500.724 194.152 501.2 193.732 501.536 193.62C501.9 193.536 502.572 193.284 503.02 193.06C503.496 192.864 504.588 192.528 505.484 192.332C506.632 192.08 507.416 191.716 508.144 191.044C509.124 190.148 509.124 190.12 508.452 190.12C508.088 190.12 507.5 189.84 507.192 189.476C506.856 189.14 506.212 188.664 505.792 188.44C504 187.516 502.88 186.424 502.74 185.388C502.656 184.828 502.264 183.736 501.844 182.952C501.312 181.86 501.2 181.412 501.424 181.02C501.648 180.6 501.508 180.32 500.724 179.508C499.884 178.64 499.688 178.556 499.212 178.864C498.876 179.06 498.68 179.088 498.652 178.92C498.624 178.78 498.596 178.5 498.568 178.304C498.54 177.856 495.152 177.184 494.032 177.38C493.556 177.464 492.8 177.38 492.352 177.212C491.904 177.044 490.728 176.736 489.72 176.54C488.712 176.344 487.312 176.008 486.584 175.812C485.38 175.476 485.212 175.504 484.68 175.98C484.12 176.484 484.092 176.484 482.86 175.868C481.796 175.336 481.376 175.28 479.556 175.448C478.016 175.588 477.092 175.504 475.888 175.168C474.992 174.916 474.068 174.72 473.816 174.776C473.564 174.804 473.004 174.636 472.612 174.356C471.716 173.74 468.272 173.32 466.06 173.516C464.8 173.628 463.96 173.516 462.7 173.096C461.776 172.788 459.956 172.452 458.64 172.34C457.324 172.228 455.588 171.948 454.776 171.752C453.964 171.528 452.76 171.36 452.088 171.36C451.416 171.36 450.072 171.108 449.12 170.8C448.168 170.492 446.712 170.24 445.928 170.24C445.144 170.24 443.38 170.044 441.98 169.792C440.496 169.54 436.604 169.288 432.46 169.176C427.672 169.036 425.264 168.84 424.816 168.616C424.424 168.392 422.66 168.196 420.336 168.112C418.236 168.028 416.052 167.832 415.492 167.692C414.932 167.552 413.364 167.44 411.992 167.412C410.62 167.412 407.036 167.272 404.04 167.104C401.044 166.936 398.384 166.824 398.16 166.824C397.936 166.852 394.184 166.908 389.844 166.964C384.552 167.02 381.836 167.16 381.584 167.384C381.36 167.552 380.94 167.692 380.66 167.692C380.352 167.664 379.848 167.748 379.54 167.832C379.148 167.944 378.84 167.804 378.476 167.3C378 166.656 378 166.516 378.448 165.06C378.98 163.184 378.784 162.82 377.076 162.596C376.292 162.484 375.704 162.204 375.284 161.728C374.5 160.804 373.604 160.804 372.596 161.756C372.008 162.316 371.728 162.428 371.644 162.176C371.56 161.98 371.224 161.476 370.86 161.056C370.524 160.636 369.992 159.796 369.712 159.18L369.18 158.088L367.22 158.06C366.156 158.06 364.588 158.2 363.776 158.396C362.964 158.592 361.648 158.76 360.836 158.76C359.24 158.76 357.448 159.46 356.608 160.412C356.3 160.72 355.88 161 355.628 161C355.376 161 354.9 161.196 354.564 161.42C354.256 161.644 352.828 162.092 351.428 162.4C348.264 163.1 341.124 163.184 337.596 162.54C334.852 162.064 324.576 161.42 323.568 161.672C323.176 161.756 322.392 161.672 321.804 161.42C321.216 161.196 319.116 160.636 317.1 160.16C315.112 159.684 312.956 159.068 312.34 158.76C311.724 158.48 310.604 158.088 309.82 157.892C309.064 157.724 307.552 157.276 306.46 156.884C305.396 156.52 303.688 156.016 302.68 155.792C301.672 155.54 299.908 155.064 298.76 154.728C297.612 154.364 295.904 153.86 294.98 153.58C294.056 153.328 292.936 152.992 292.46 152.824C290.36 152.096 284.536 150.668 283.64 150.64C283.108 150.64 280.784 150.192 278.46 149.66C276.164 149.128 273.252 148.596 272.048 148.512C270.816 148.428 269.528 148.148 269.192 147.924C268.828 147.7 267.624 147.42 266.504 147.28C265.384 147.14 263.704 146.916 262.78 146.748C259.056 146.188 253.96 145.6 251.72 145.46C250.404 145.376 248.472 145.208 247.38 145.04C244.776 144.648 237.972 144.172 237.44 144.368C237.216 144.452 234.892 144.368 232.26 144.228C224.756 143.752 223.188 143.724 222.292 144.116ZM163.436 153.048C163.66 153.664 163.016 154.28 162.708 153.748C162.428 153.3 162.596 152.6 162.988 152.6C163.128 152.6 163.324 152.796 163.436 153.048ZM191.268 156.016C191.716 156.408 192.64 157.78 192.64 158.088C192.64 158.424 190.064 157.976 189.812 157.612C189.532 157.164 189.784 156.184 190.232 155.904C190.652 155.624 190.792 155.624 191.268 156.016ZM185.92 156.8C185.92 157.36 185.78 157.64 185.5 157.64C185.22 157.64 185.08 157.36 185.08 156.8C185.08 156.24 185.22 155.96 185.5 155.96C185.78 155.96 185.92 156.24 185.92 156.8ZM484.568 188.496C484.708 188.692 484.624 188.748 484.344 188.636C484.092 188.552 483.756 188.636 483.588 188.804C483.42 188.972 483.196 189 483.084 188.888C482.86 188.664 483.504 188.16 484.036 188.16C484.204 188.16 484.456 188.3 484.568 188.496ZM483.168 189.168C483.56 189.448 483.84 189.532 483.784 189.392C483.728 189.252 483.84 189.112 483.98 189.056C484.148 189.028 484.26 189.168 484.26 189.336C484.26 189.56 483.868 189.728 483.336 189.756C482.86 189.784 482.496 189.672 482.58 189.532C482.692 189.392 482.552 189.364 482.328 189.448C481.88 189.616 481.712 189.252 482.076 188.916C482.328 188.636 482.356 188.664 483.168 189.168ZM491.372 189.924C491.82 190.484 491.456 190.68 490.028 190.68L488.74 190.652L489.412 190.12C490.168 189.476 490.924 189.392 491.372 189.924ZM473.844 190.316C473.648 190.372 473.312 190.372 473.144 190.316C472.948 190.232 473.088 190.176 473.48 190.176C473.872 190.176 474.012 190.232 473.844 190.316ZM496.58 194.88C496.664 195.02 496.552 195.16 496.3 195.16C496.048 195.16 495.936 195.02 496.02 194.88C496.104 194.712 496.244 194.6 496.3 194.6C496.356 194.6 496.496 194.712 496.58 194.88ZM55.44 198.52C55.44 198.66 55.636 198.8 55.86 198.8C56.448 198.8 56.392 199.248 55.72 199.92C54.6 201.04 53.76 200.452 54.516 199.108C55.02 198.24 55.44 197.988 55.44 198.52ZM505.96 302.4C505.96 302.54 505.764 302.68 505.54 302.68C505.316 302.68 505.12 302.54 505.12 302.4C505.12 302.232 505.316 302.12 505.54 302.12C505.764 302.12 505.96 302.232 505.96 302.4ZM489.944 304.668C490.028 305.2 489.3 306.04 488.74 306.04C488.124 306.04 487.984 305.172 488.516 304.584C489.048 303.968 489.804 304.024 489.944 304.668ZM88.088 321.776C89.124 322.252 90.44 323.624 90.44 324.24C90.44 325.052 89.74 325.472 89.236 324.94C88.984 324.716 88.62 324.52 88.424 324.52C87.976 324.492 85.68 322.448 85.68 322.056C85.68 321.888 86.016 321.692 86.464 321.636C86.884 321.58 87.248 321.496 87.276 321.468C87.304 321.468 87.668 321.608 88.088 321.776ZM87.78 348.348C88.06 349.16 87.752 349.328 87.08 348.74C86.632 348.348 86.604 348.18 86.856 347.984C87.416 347.648 87.584 347.704 87.78 348.348ZM456.204 377.72C456.12 378.028 455.952 378.28 455.812 378.28C455.672 378.28 455.56 378.028 455.56 377.72C455.56 377.412 455.728 377.16 455.952 377.16C456.204 377.16 456.288 377.356 456.204 377.72ZM291.004 408.38C290.808 408.968 290.668 408.912 290.724 408.268C290.724 407.96 290.864 407.764 290.976 407.848C291.088 407.932 291.116 408.156 291.004 408.38Z" fill="#00A3FF"/>
</svg>
