<svg width="24" height="24" viewBox="0 0 24 24" fill="none" xmlns="http://www.w3.org/2000/svg">
<path d="M4.33767 19.5662H6.39495C6.65991 19.5662 6.87495 19.3517 6.87495 19.0862V15.5755C6.87495 15.3101 6.65991 15.0955 6.39495 15.0955H4.33767C4.07271 15.0955 3.85767 15.3101 3.85767 15.5755V19.0862C3.85767 19.3512 4.07271 19.5662 4.33767 19.5662ZM4.81767 16.055H5.91495V18.6058H4.81767V16.055Z" fill="#231F20"/>
<path d="M10.509 19.5662C10.7739 19.5662 10.989 19.3517 10.989 19.0862V9.17904C10.989 8.9136 10.7739 8.69904 10.509 8.69904H8.45168C8.18672 8.69904 7.97168 8.9136 7.97168 9.17904V19.0862C7.97168 19.3517 8.18672 19.5662 8.45168 19.5662H10.509ZM8.93168 9.65904H10.029V18.6062H8.93168V9.65904Z" fill="#231F20"/>
<path d="M14.6232 19.5662C14.8882 19.5662 15.1032 19.3517 15.1032 19.0862V12.4608C15.1032 12.1954 14.8882 11.9808 14.6232 11.9808H12.5664C12.3015 11.9808 12.0864 12.1954 12.0864 12.4608V19.0862C12.0864 19.3517 12.3015 19.5662 12.5664 19.5662H14.6232ZM13.0464 12.9408H14.1437V18.6062H13.0464V12.9408Z" fill="#231F20"/>
<path d="M16.2004 4.68624V19.0862C16.2004 19.3517 16.4155 19.5662 16.6804 19.5662H18.7377C19.0027 19.5662 19.2177 19.3517 19.2177 19.0862V4.68624C19.2177 4.4208 19.0027 4.20624 18.7377 4.20624H16.6804C16.4155 4.20624 16.2004 4.4208 16.2004 4.68624ZM17.1604 5.16624H18.2577V18.6062H17.1604V5.16624Z" fill="#231F20"/>
</svg>
