<svg width="128" height="128" viewBox="0 0 128 128" fill="none" xmlns="http://www.w3.org/2000/svg">
<g clip-path="url(#clip0_36_114)">
<path opacity="0.895" fill-rule="evenodd" clip-rule="evenodd" d="M65.5 -0.5C68.1667 -0.5 70.8333 -0.5 73.5 -0.5C74.6138 0.885333 75.6138 2.38533 76.5 4C79.5224 4.09842 82.1891 4.93175 84.5 6.5C85.5 8.16667 86.8333 9.5 88.5 10.5C88.8333 13.1667 89.1667 15.8333 89.5 18.5C89.3484 22.1407 87.6818 24.8073 84.5 26.5C83.0937 26.9731 82.427 27.9731 82.5 29.5C80.2671 37.1342 76.6004 43.9676 71.5 50C71.6667 50.5 71.8333 51 72 51.5C76.1153 48.6832 80.6153 47.5166 85.5 48C87.6166 49.7309 89.1166 51.8976 90 54.5C93.1367 63.5771 96.47 72.5771 100 81.5C100.667 84.1667 100.667 86.8333 100 89.5C96.4228 92.3733 92.5894 94.8733 88.5 97C90.2024 99.2354 91.2024 101.735 91.5 104.5C100.457 102.33 105.291 105.663 106 114.5C95.4572 118.952 84.9572 123.286 74.5 127.5C73.5 127.5 72.5 127.5 71.5 127.5C68.7319 123.726 68.2319 119.726 70 115.5C72.0176 113.65 73.8509 111.65 75.5 109.5C74.0906 106.273 73.0906 102.94 72.5 99.5C68.7956 99.2764 65.129 99.1097 61.5 99C41.9274 107.038 22.4274 115.204 3 123.5C1.16551 121.93 0.665507 120.263 1.5 118.5C14.2447 113.925 26.5781 108.592 38.5 102.5C36.2346 96.204 34.068 89.8706 32 83.5C31.586 83.0426 31.086 82.7093 30.5 82.5C21.5803 86.3622 12.5803 90.0288 3.5 93.5C2.81654 93.1373 2.14987 92.8039 1.5 92.5C0.315694 91.3121 0.315694 90.1455 1.5 89C18.1787 82.5528 34.6787 75.7195 51 68.5C51.6667 65.8333 52.3333 63.1667 53 60.5C53.5 59.3333 54.3333 58.5 55.5 58C55.0426 57.586 54.7093 57.086 54.5 56.5C50.5734 55.3453 46.5734 54.512 42.5 54C39.8261 53.3299 37.4927 52.1632 35.5 50.5C35.3893 49.8826 35.056 49.3826 34.5 49C31.5184 48.502 28.5184 48.3354 25.5 48.5C23.1016 48.7406 21.1016 48.0739 19.5 46.5C19.0269 45.0937 18.0269 44.427 16.5 44.5C12.2135 37.1436 13.5468 30.9769 20.5 26C18.9465 22.4347 19.2799 19.1014 21.5 16C36.3818 10.7659 51.0484 5.26586 65.5 -0.5ZM83.5 12.5C84.3686 14.717 84.702 17.0504 84.5 19.5C83.5416 19.9528 82.7083 20.6195 82 21.5C80.3528 17.578 79.3528 13.578 79 9.5C80.8778 10.0527 82.3778 11.0527 83.5 12.5ZM27.5 43.5C19.4651 42.4279 17.6318 38.4279 22 31.5C24.1023 35.3716 25.9356 39.3716 27.5 43.5Z" fill="#0A0603"/>
<path fill-rule="evenodd" clip-rule="evenodd" d="M68.5 3.5C70.0174 3.51056 71.1841 4.17723 72 5.5C73.6667 10.5 75.3333 15.5 77 20.5C78.2086 26.8859 77.2086 32.8859 74 38.5C71.3542 41.9802 68.5209 45.3135 65.5 48.5C66.0736 50.0589 66.7402 51.5589 67.5 53C65.2457 54.256 62.9123 55.4227 60.5 56.5C59.0499 55.1502 58.3832 53.4835 58.5 51.5C50.5815 51.7218 43.2482 49.8884 36.5 46C29.935 38.3671 25.935 29.5338 24.5 19.5C39.4593 14.7381 54.126 9.40472 68.5 3.5Z" fill="#EEA021"/>
<path opacity="0.09" fill-rule="evenodd" clip-rule="evenodd" d="M84.5 6.5C86.8333 6.83333 88.1667 8.16667 88.5 10.5C86.8333 9.5 85.5 8.16667 84.5 6.5Z" fill="#D17C13"/>
<path opacity="0.803" fill-rule="evenodd" clip-rule="evenodd" d="M102.5 8.5C104.5 8.5 106.5 8.5 108.5 8.5C107.876 15.8712 111.209 19.8712 118.5 20.5C119.549 24.8306 117.882 26.9973 113.5 27C109.095 29.5776 107.428 33.411 108.5 38.5C106.5 38.5 104.5 38.5 102.5 38.5C103.238 31.3077 100.071 26.9744 93 25.5C92.5065 23.8659 92.3398 22.1992 92.5 20.5C99.7908 19.8712 103.124 15.8712 102.5 8.5Z" fill="#040301"/>
<path fill-rule="evenodd" clip-rule="evenodd" d="M63.5 10.5C66.4343 11.2894 68.2676 13.2894 69 16.5C70.942 22.4853 70.942 28.4853 69 34.5C68.3632 36.3031 67.1965 37.6364 65.5 38.5C64.2801 38.1131 63.6135 37.2798 63.5 36C67.7109 28.033 67.3776 20.1997 62.5 12.5C62.8627 11.8165 63.1961 11.1499 63.5 10.5Z" fill="#110C06"/>
<path opacity="0.345" fill-rule="evenodd" clip-rule="evenodd" d="M83.5 12.5C84.7251 13.1522 85.3917 14.3189 85.5 16C85.4857 17.3847 85.1524 18.5514 84.5 19.5C84.702 17.0504 84.3686 14.717 83.5 12.5Z" fill="#764910"/>
<path opacity="0.224" fill-rule="evenodd" clip-rule="evenodd" d="M88.5 10.5C90.4127 13.04 90.746 15.7067 89.5 18.5C89.1667 15.8333 88.8333 13.1667 88.5 10.5Z" fill="#BF6D19"/>
<path fill-rule="evenodd" clip-rule="evenodd" d="M104.5 19.5C110.532 21.5435 110.865 24.2102 105.5 27.5C100.691 25.2575 100.357 22.5908 104.5 19.5Z" fill="#E6B661"/>
<path opacity="0.157" fill-rule="evenodd" clip-rule="evenodd" d="M84.5 26.5C84.573 28.0269 83.9063 29.0269 82.5 29.5C82.427 27.9731 83.0937 26.9731 84.5 26.5Z" fill="#C06F13"/>
<path opacity="0.871" fill-rule="evenodd" clip-rule="evenodd" d="M16.5 44.5C18.0269 44.427 19.0269 45.0937 19.5 46.5C17.9731 46.573 16.9731 45.9063 16.5 44.5Z" fill="#96590D"/>
<path opacity="0.992" fill-rule="evenodd" clip-rule="evenodd" d="M25.5 48.4999C28.5184 48.3353 31.5184 48.5019 34.5 48.9999C35.056 49.3825 35.3893 49.8825 35.5 50.4999C32.0172 49.9898 28.6838 49.3231 25.5 48.4999Z" fill="#7E4611"/>
<path opacity="0.825" fill-rule="evenodd" clip-rule="evenodd" d="M11.5 49.5C13.1667 49.5 14.8333 49.5 16.5 49.5C16.2221 57.2191 19.8887 61.5524 27.5 62.5C27.5 64.1667 27.5 65.8333 27.5 67.5C20.38 68.2882 16.7133 72.2882 16.5 79.5C14.8333 79.5 13.1667 79.5 11.5 79.5C11.9076 72.2898 8.57429 68.2898 1.50001 67.5C1.21479 65.712 1.54812 64.0453 2.50001 62.5C9.04909 60.6184 12.0491 56.2851 11.5 49.5Z" fill="#030201"/>
<path opacity="0.824" fill-rule="evenodd" clip-rule="evenodd" d="M111.5 49.5C113.167 49.5 114.833 49.5 116.5 49.5C115.951 56.2851 118.951 60.6184 125.5 62.5C126.452 64.0453 126.785 65.712 126.5 67.5C119.426 68.2898 116.092 72.2898 116.5 79.5C114.833 79.5 113.167 79.5 111.5 79.5C111.287 72.2882 107.62 68.2882 100.5 67.5C100.5 65.8333 100.5 64.1667 100.5 62.5C108.111 61.5524 111.778 57.2191 111.5 49.5Z" fill="#030201"/>
<path fill-rule="evenodd" clip-rule="evenodd" d="M80.5 51.5C83.5409 51.3794 85.2076 52.8794 85.5 56C83.2866 58.0814 80.6199 59.4147 77.5 60C76.6198 61.3561 76.2865 62.8561 76.5 64.5C79.5195 63.2821 82.6862 62.2821 86 61.5C88.3806 63.0937 89.5472 65.427 89.5 68.5C86.6872 68.5481 84.0205 69.2147 81.5 70.5C80.5713 71.6888 80.238 73.0222 80.5 74.5C83.9399 73.9094 87.2732 72.9094 90.5 71.5C91.8772 73.2895 92.8772 75.2895 93.5 77.5C90.3327 78.9886 87.3327 80.6553 84.5 82.5C85 83.5 85.5 84.5 86 85.5C89.0022 83.829 92.1688 82.9957 95.5 83C96.5171 84.0495 96.6838 85.2161 96 86.5C90.5784 89.461 85.0784 92.2943 79.5 95C75.4862 95.4994 71.4862 95.3328 67.5 94.5C65.6803 94.3507 64.1803 93.6841 63 92.5C60.4956 84.9867 57.9956 77.4867 55.5 70C55.8172 66.8821 56.8172 64.0488 58.5 61.5C66.1618 58.6653 73.4951 55.332 80.5 51.5Z" fill="#E8C6B9"/>
<path fill-rule="evenodd" clip-rule="evenodd" d="M13.5 60.5C15.1486 61.714 16.8152 63.0473 18.5 64.5C17.1851 66.3159 15.6851 67.9825 14 69.5C12.5 68 11 66.5 9.5 65C11.0414 63.6288 12.3747 62.1288 13.5 60.5Z" fill="#DFB05E"/>
<path fill-rule="evenodd" clip-rule="evenodd" d="M112.5 60.5C119.321 62.7439 119.821 65.7439 114 69.5C112.315 67.9825 110.815 66.3159 109.5 64.5C111.288 63.7174 112.288 62.3841 112.5 60.5Z" fill="#E0B15E"/>
<path fill-rule="evenodd" clip-rule="evenodd" d="M48.5 74.5C50.1439 74.2865 51.6439 74.6198 53 75.5C55.0361 81.2746 56.8694 87.1079 58.5 93C58.1667 93.8333 57.8333 94.6667 57.5 95.5C52.7513 97.3052 48.0846 99.3052 43.5 101.5C42.914 101.291 42.414 100.957 42 100.5C39.932 94.1294 37.7654 87.796 35.5 81.5C36.7862 79.4294 38.4529 79.0961 40.5 80.5C42.0987 84.7959 43.5987 89.1292 45 93.5C46.488 94.1958 47.988 93.8625 49.5 92.5C47.7347 87.7041 46.068 82.8707 44.5 78C45.6856 76.5879 47.019 75.4212 48.5 74.5Z" fill="#63667A"/>
<path fill-rule="evenodd" clip-rule="evenodd" d="M1.5 118.5C1.5 109.833 1.5 101.167 1.5 92.5C2.14987 92.8039 2.81654 93.1373 3.5 93.5C12.5803 90.0288 21.5803 86.3622 30.5 82.5C31.086 82.7093 31.586 83.0426 32 83.5C34.068 89.8706 36.2346 96.204 38.5 102.5C26.5781 108.592 14.2447 113.925 1.5 118.5Z" fill="#4A4955"/>
<path fill-rule="evenodd" clip-rule="evenodd" d="M82.5 97.5C83.3764 97.3691 84.0431 97.7025 84.5 98.5C85.2135 100.811 86.2135 102.978 87.5 105C85.1287 105.735 82.7954 106.568 80.5 107.5C78.7134 105.142 77.7134 102.475 77.5 99.5C79.5529 99.5979 81.2196 98.9313 82.5 97.5Z" fill="#E1971F"/>
<path fill-rule="evenodd" clip-rule="evenodd" d="M86.5 109.5C91.2137 109.173 95.8804 109.507 100.5 110.5C100.291 111.086 99.9574 111.586 99.5 112C90.8957 115.478 82.229 118.644 73.5 121.5C75.9225 115.41 80.2558 111.41 86.5 109.5Z" fill="#DC7B1A"/>
</g>
<defs>
<clipPath id="clip0_36_114">
<rect width="128" height="128" fill="white"/>
</clipPath>
</defs>
</svg>
